<?xml version="1.0" encoding="UTF-8"?>
<svg id="Layer_42" data-name="Layer 42" xmlns="http://www.w3.org/2000/svg" xmlns:xlink="http://www.w3.org/1999/xlink" viewBox="0 0 6799.9 6799.9">
  <defs>
    <style>
      .cls-1, .cls-2 {
        stroke: #6362ff;
        stroke-width: 0px;
      }

      .cls-1, .cls-2, .cls-3, .cls-4, .cls-5, .cls-6 {
        stroke-miterlimit: 10;
      }

      .cls-1, .cls-7, .cls-3 {
        fill: none;
      }

      .cls-8 {
        fill: url(#New_Gradient_Swatch_2);
      }

      .cls-8, .cls-9, .cls-10, .cls-11, .cls-12, .cls-13, .cls-14, .cls-15, .cls-16, .cls-17, .cls-18, .cls-19, .cls-20, .cls-21, .cls-22, .cls-23, .cls-24, .cls-25, .cls-26, .cls-27, .cls-28, .cls-29, .cls-30, .cls-31, .cls-32, .cls-33, .cls-34, .cls-35 {
        stroke-width: 0px;
      }

      .cls-36 {
        stroke-width: 1.25px;
      }

      .cls-36, .cls-7, .cls-37, .cls-38, .cls-39, .cls-40, .cls-41, .cls-42, .cls-43, .cls-44, .cls-45, .cls-46, .cls-47, .cls-48, .cls-49, .cls-50, .cls-51, .cls-52, .cls-53, .cls-54, .cls-55, .cls-56 {
        stroke-linecap: round;
        stroke-linejoin: round;
      }

      .cls-36, .cls-57, .cls-38, .cls-40, .cls-41, .cls-46, .cls-4, .cls-51, .cls-5, .cls-52, .cls-53, .cls-54, .cls-55, .cls-58, .cls-6 {
        stroke: #6364ff;
      }

      .cls-36, .cls-34, .cls-53, .cls-54 {
        fill: #89a2ff;
      }

      .cls-9 {
        opacity: .2;
      }

      .cls-9, .cls-59, .cls-2, .cls-39, .cls-40, .cls-44, .cls-45, .cls-47, .cls-4, .cls-50, .cls-35, .cls-55, .cls-56 {
        fill: #fff;
      }

      .cls-10 {
        fill: url(#New_Gradient_Swatch_2-6);
      }

      .cls-11 {
        fill: url(#New_Gradient_Swatch_2-5);
      }

      .cls-12 {
        fill: url(#New_Gradient_Swatch_2-9);
      }

      .cls-13 {
        fill: url(#New_Gradient_Swatch_2-7);
      }

      .cls-14 {
        fill: url(#New_Gradient_Swatch_2-8);
      }

      .cls-15 {
        fill: url(#New_Gradient_Swatch_2-3);
      }

      .cls-16 {
        fill: url(#New_Gradient_Swatch_2-4);
      }

      .cls-17 {
        fill: url(#New_Gradient_Swatch_2-2);
      }

      .cls-18 {
        fill: #6362ff;
      }

      .cls-59, .cls-60, .cls-58 {
        font-size: 7.39px;
      }

      .cls-59, .cls-39, .cls-47, .cls-50 {
        stroke: #fff;
      }

      .cls-7, .cls-37, .cls-42, .cls-3, .cls-44, .cls-48, .cls-49, .cls-56 {
        stroke: #89a2ff;
      }

      .cls-7, .cls-38, .cls-44, .cls-48, .cls-49, .cls-51, .cls-53, .cls-55 {
        stroke-width: 2.32px;
      }

      .cls-37 {
        stroke-width: 1.16px;
      }

      .cls-37, .cls-42, .cls-31, .cls-49, .cls-51, .cls-52 {
        fill: #f6f7f4;
      }

      .cls-57, .cls-19, .cls-46, .cls-48, .cls-58 {
        fill: #6364ff;
      }

      .cls-57, .cls-61 {
        font-size: 5.71px;
      }

      .cls-38, .cls-41, .cls-5, .cls-6 {
        fill: #87a0ff;
      }

      .cls-62 {
        letter-spacing: -.06em;
      }

      .cls-63 {
        letter-spacing: -.12em;
      }

      .cls-39, .cls-56 {
        stroke-width: 1.02px;
      }

      .cls-40, .cls-52 {
        stroke-width: 9.51px;
      }

      .cls-41 {
        stroke-width: 1.22px;
      }

      .cls-42 {
        stroke-width: .51px;
      }

      .cls-3 {
        stroke-width: .95px;
      }

      .cls-43, .cls-46 {
        font-family: HiraMaruProN-W4-83pv-RKSJ-H, 'Hiragino Maru Gothic ProN';
        stroke-width: .4px;
      }

      .cls-45 {
        stroke: #05004d;
      }

      .cls-45, .cls-50 {
        stroke-width: .78px;
      }

      .cls-20 {
        fill: url(#New_Gradient_Swatch_2-13);
      }

      .cls-21 {
        fill: url(#New_Gradient_Swatch_2-15);
      }

      .cls-22 {
        fill: url(#New_Gradient_Swatch_2-19);
      }

      .cls-23 {
        fill: url(#New_Gradient_Swatch_2-18);
      }

      .cls-24 {
        fill: url(#New_Gradient_Swatch_2-14);
      }

      .cls-25 {
        fill: url(#New_Gradient_Swatch_2-17);
      }

      .cls-26 {
        fill: url(#New_Gradient_Swatch_2-16);
      }

      .cls-27 {
        fill: url(#New_Gradient_Swatch_2-11);
      }

      .cls-28 {
        fill: url(#New_Gradient_Swatch_2-10);
      }

      .cls-29 {
        fill: url(#New_Gradient_Swatch_2-12);
      }

      .cls-30 {
        fill: #000;
      }

      .cls-47 {
        stroke-width: .8px;
      }

      .cls-4 {
        stroke-width: .29px;
      }

      .cls-64 {
        letter-spacing: 0em;
      }

      .cls-32 {
        fill: #f2f2f2;
      }

      .cls-65 {
        opacity: .3;
      }

      .cls-33 {
        fill: #05004d;
      }

      .cls-66 {
        opacity: .95;
      }

      .cls-5 {
        stroke-width: 1.15px;
      }

      .cls-54 {
        stroke-width: 1.07px;
      }

      .cls-6 {
        stroke-width: .76px;
      }
    </style>
    <linearGradient id="New_Gradient_Swatch_2" data-name="New Gradient Swatch 2" x1="3376.3" y1="2708.57" x2="3418.87" y2="2708.57" gradientUnits="userSpaceOnUse">
      <stop offset="0" stop-color="#89a2ff"/>
      <stop offset="1" stop-color="#6364ff"/>
    </linearGradient>
    <linearGradient id="New_Gradient_Swatch_2-2" data-name="New Gradient Swatch 2" x1="3379.27" y1="2719.5" x2="3415.91" y2="2719.5" xlink:href="#New_Gradient_Swatch_2"/>
    <linearGradient id="New_Gradient_Swatch_2-3" data-name="New Gradient Swatch 2" x1="3379.27" y1="2714.03" x2="3418.87" y2="2714.03" xlink:href="#New_Gradient_Swatch_2"/>
    <linearGradient id="New_Gradient_Swatch_2-4" data-name="New Gradient Swatch 2" x1="3382.24" y1="2730.42" x2="3412.94" y2="2730.42" xlink:href="#New_Gradient_Swatch_2"/>
    <linearGradient id="New_Gradient_Swatch_2-5" data-name="New Gradient Swatch 2" x1="3382.24" y1="2724.96" x2="3415.9" y2="2724.96" xlink:href="#New_Gradient_Swatch_2"/>
    <linearGradient id="New_Gradient_Swatch_2-6" data-name="New Gradient Swatch 2" x1="3334.13" y1="4118.18" x2="3460.92" y2="4118.18" xlink:href="#New_Gradient_Swatch_2"/>
    <linearGradient id="New_Gradient_Swatch_2-7" data-name="New Gradient Swatch 2" x1="3409.56" y1="4078.63" x2="3424.15" y2="4078.63" xlink:href="#New_Gradient_Swatch_2"/>
    <linearGradient id="New_Gradient_Swatch_2-8" data-name="New Gradient Swatch 2" x1="3381.95" y1="4078.63" x2="3396.54" y2="4078.63" xlink:href="#New_Gradient_Swatch_2"/>
    <linearGradient id="New_Gradient_Swatch_2-9" data-name="New Gradient Swatch 2" x1="3354.35" y1="4078.63" x2="3368.94" y2="4078.63" xlink:href="#New_Gradient_Swatch_2"/>
    <linearGradient id="New_Gradient_Swatch_2-10" data-name="New Gradient Swatch 2" x1="3437.16" y1="4078.63" x2="3451.75" y2="4078.63" xlink:href="#New_Gradient_Swatch_2"/>
    <linearGradient id="New_Gradient_Swatch_2-11" data-name="New Gradient Swatch 2" x1="3362.95" y1="4188.08" x2="3432.1" y2="4188.08" xlink:href="#New_Gradient_Swatch_2"/>
    <linearGradient id="New_Gradient_Swatch_2-12" data-name="New Gradient Swatch 2" x1="3362.95" y1="4188.08" x2="3432.1" y2="4188.08" xlink:href="#New_Gradient_Swatch_2"/>
    <linearGradient id="New_Gradient_Swatch_2-13" data-name="New Gradient Swatch 2" x1="5333.5" y1="3369.7" x2="5460.3" y2="3369.7" xlink:href="#New_Gradient_Swatch_2"/>
    <linearGradient id="New_Gradient_Swatch_2-14" data-name="New Gradient Swatch 2" x1="5408.93" y1="3330.15" x2="5423.52" y2="3330.15" xlink:href="#New_Gradient_Swatch_2"/>
    <linearGradient id="New_Gradient_Swatch_2-15" data-name="New Gradient Swatch 2" x1="5381.33" y1="3330.15" x2="5395.92" y2="3330.15" xlink:href="#New_Gradient_Swatch_2"/>
    <linearGradient id="New_Gradient_Swatch_2-16" data-name="New Gradient Swatch 2" x1="5353.73" y1="3330.15" x2="5368.31" y2="3330.15" xlink:href="#New_Gradient_Swatch_2"/>
    <linearGradient id="New_Gradient_Swatch_2-17" data-name="New Gradient Swatch 2" x1="5436.54" y1="3330.15" x2="5451.12" y2="3330.15" xlink:href="#New_Gradient_Swatch_2"/>
    <linearGradient id="New_Gradient_Swatch_2-18" data-name="New Gradient Swatch 2" x1="5362.32" y1="3439.61" x2="5431.47" y2="3439.61" xlink:href="#New_Gradient_Swatch_2"/>
    <linearGradient id="New_Gradient_Swatch_2-19" data-name="New Gradient Swatch 2" x1="5362.32" y1="3439.61" x2="5431.47" y2="3439.61" xlink:href="#New_Gradient_Swatch_2"/>
  </defs>
  <rect class="cls-40" x="3256.04" y="1975.03" width="282.96" height="282.96" rx="18.4" ry="18.4" transform="translate(6795.05 4233.02) rotate(180)"/>
  <g>
    <rect class="cls-53" x="3335.66" y="2035.14" width="123.74" height="162.75" rx="6.37" ry="6.37"/>
    <rect class="cls-47" x="3400.58" y="2175.41" width="45.71" height="9.21" rx="1.13" ry="1.13"/>
    <g>
      <path class="cls-19" d="M3352.21,2167.42s-2.1,5.18-3.05,12.95c-.09.69,1.53.07,2.08-.14,1.26-7.65,3.05-12.9,3.05-12.9-.52-.09-2.08.09-2.08.09Z"/>
      <path class="cls-19" d="M3355.81,2173.29c-.6,2.47-.32,3.71.66,3.71s2-1.56,2.64-4.13c.59-2.45.31-3.57-.68-3.57s-1.97,1.36-2.62,4ZM3361.23,2167.98c.74,1.19.42,3.08-.03,4.95-.74,3.03-2.48,6.16-5.3,6.16-2.67,0-2.94-2.87-2.23-5.82.43-1.78,1.14-3.6,2.22-4.81.83-.92,1.97-1.48,3.11-1.48s1.87.22,2.24,1Z"/>
      <path class="cls-19" d="M3363.83,2173.29c-.6,2.47-.32,3.71.66,3.71s2-1.57,2.64-4.13c.59-2.45.31-3.58-.68-3.58-.94,0-1.97,1.36-2.62,4ZM3369.25,2167.99c.74,1.19.42,3.08-.03,4.95-.74,3.03-2.48,6.16-5.3,6.16-2.67,0-2.94-2.88-2.23-5.82.43-1.78,1.14-3.6,2.22-4.81.83-.92,1.97-1.48,3.11-1.48s1.86.22,2.23,1Z"/>
      <path class="cls-19" d="M3364.75,2182.82c-1.84,0-11.41.75-15.18,1.06-.26-.97.08-1.83.51-2.25,1.89-.35,14.49-1.32,15.44-.77-.16.68-.43,1.55-.77,1.96Z"/>
      <path class="cls-19" d="M3363.14,2186.62c-1.88,0-7.85.41-11.7.76-.26-1.08.08-2.04.52-2.5,1.93-.39,10.99-1.05,11.96-.44-.16.76-.44,1.72-.79,2.18Z"/>
    </g>
    <g>
      <rect class="cls-47" x="3349.79" y="2148.8" width="61.31" height="9.21" rx="1.13" ry="1.13"/>
      <g>
        <g>
          <rect class="cls-35" x="3422.49" y="2045.64" width="23.4" height="24.01" rx="2.93" ry="2.93"/>
          <ellipse class="cls-34" cx="3434.19" cy="2057.64" rx="10.18" ry="10.12"/>
          <polygon class="cls-35" points="3438.94 2051.57 3431.82 2058.87 3429.45 2056.44 3427.06 2058.86 3431.81 2063.71 3431.82 2063.71 3431.82 2063.71 3441.32 2054 3438.94 2051.57"/>
        </g>
        <g>
          <rect class="cls-35" x="3422.49" y="2075.3" width="23.4" height="24.01" rx="2.93" ry="2.93"/>
          <ellipse class="cls-34" cx="3434.19" cy="2087.31" rx="10.18" ry="10.12"/>
          <polygon class="cls-35" points="3438.94 2081.24 3431.82 2088.53 3429.45 2086.1 3427.06 2088.52 3431.81 2093.38 3431.82 2093.37 3431.82 2093.38 3441.32 2083.66 3438.94 2081.24"/>
        </g>
        <g>
          <rect class="cls-35" x="3422.49" y="2104.96" width="23.4" height="24.01" rx="2.93" ry="2.93"/>
          <ellipse class="cls-34" cx="3434.19" cy="2116.97" rx="10.18" ry="10.12"/>
          <polygon class="cls-35" points="3438.94 2110.9 3431.82 2118.19 3429.45 2115.77 3427.06 2118.18 3431.81 2123.04 3431.82 2123.03 3431.82 2123.04 3441.32 2113.33 3438.94 2110.9"/>
        </g>
        <g>
          <rect class="cls-35" x="3422.49" y="2134.63" width="23.4" height="24.01" rx="2.93" ry="2.93"/>
          <ellipse class="cls-34" cx="3434.19" cy="2146.63" rx="10.18" ry="10.12"/>
          <polygon class="cls-35" points="3438.94 2140.56 3431.82 2147.85 3429.45 2145.43 3427.06 2147.84 3431.81 2152.7 3431.82 2152.69 3431.82 2152.7 3441.32 2142.99 3438.94 2140.56"/>
        </g>
      </g>
    </g>
    <text class="cls-43" transform="translate(3361.04 2050.95)"><tspan class="cls-59"><tspan x="0" y="0">INVEST IN</tspan></tspan><tspan class="cls-58"><tspan x="-5.08" y="13.32">BUSINESSES</tspan></tspan><tspan class="cls-58"><tspan class="cls-62" x="-11.39" y="26.64">Y</tspan><tspan class="cls-64" x="-6.6" y="26.64">OU BELIEVE IN</tspan></tspan><tspan class="cls-59"><tspan x="-6.8" y="39.96">$94m RAISED</tspan></tspan><tspan class="cls-59"><tspan x="-10.81" y="53.28">67k INVES</tspan><tspan class="cls-62" x="28.09" y="53.28">T</tspan><tspan x="32.64" y="53.28">ORS</tspan></tspan><tspan class="cls-59"><tspan x="-16.69" y="66.59">25k INVESTMENTS</tspan></tspan><tspan class="cls-59"><tspan x="-4.75" y="79.91">167 OFFERS</tspan></tspan><tspan class="cls-57"><tspan x="-12.5" y="91.33">TRUSTED PL</tspan><tspan class="cls-63" x="25.16" y="91.33">A</tspan><tspan x="28.81" y="91.33">TFORM</tspan></tspan></text>
  </g>
  <g>
    <path class="cls-40" d="M5833.28,3501.96h0c-54.73-55.54-54.73-145.58,0-201.11h0c54.73-55.54,143.45-55.54,198.18,0h0c54.73,55.54,54.73,145.58,0,201.11h0c-54.73,55.54-143.45,55.54-198.18,0Z"/>
    <g>
      <polygon class="cls-53" points="5903.18 3351.1 5906.54 3354.65 5891.92 3368.86 5888.57 3365.31 5903.18 3351.1"/>
      <polygon class="cls-53" points="5928.17 3355.22 5931.53 3358.77 5916.91 3372.97 5913.55 3369.42 5928.17 3355.22"/>
      <polygon class="cls-53" points="5964.37 3445.42 5961.01 3441.87 5975.63 3427.66 5978.99 3431.21 5964.37 3445.42"/>
      <polygon class="cls-53" points="5961.36 3419.94 5958 3416.39 5972.62 3402.19 5975.98 3405.74 5961.36 3419.94"/>
      <path class="cls-53" d="M5973.31,3452.52l-6.67-75.14-10.9-11.53-73.81-9.89c-3.53-.47-3.03,8.54,1.04,10.57l55.16,27.49,24.8,57.01c1.83,4.21,10.7,5.09,10.38,1.49Z"/>
      <path class="cls-53" d="M5983.87,3359.03c3.98-7.59-1.66-13.56-9.32-9.85-9.82,4.77-24.31,15.68-38.94,29.89-22.97,22.33-37.91,44.68-33.18,49.67,4.72,4.99,27.38-9.19,50.35-31.53,14.63-14.21,25.98-28.43,31.09-38.18Z"/>
      <path class="cls-53" d="M5913.57,3450.44l-2.34-26.37-3.83-4.05-25.9-3.47c-1.24-.17-1.07,3,.36,3.71l19.36,9.65,8.7,20.01c.64,1.48,3.76,1.79,3.65.53Z"/>
      <path class="cls-53" d="M5910.15,3425.27c-7.99,7.77-15.41,13.17-16.51,12.02-1.1-1.16,4.54-8.46,12.53-16.23,7.99-7.78,15.43-13.17,16.53-12.02,1.08,1.16-4.55,8.46-12.55,16.23Z"/>
      <path class="cls-19" d="M5981.1,3361.73c1.08-3.03.74-6.19-1.23-8.27-1.97-2.08-5.06-2.56-8.1-1.6l-6.12,3.68c3.06-1,7.29.64,9.27,2.73,1.98,2.09,3.41,6.45,2.3,9.5l3.88-6.04Z"/>
      <polygon class="cls-34" points="5980.58 3351.63 5981.7 3352.81 5971.52 3362.71 5970.4 3361.53 5980.58 3351.63"/>
    </g>
  </g>
  <g>
    <rect class="cls-40" x="1260.98" y="3259.93" width="282.96" height="282.96" rx="15.5" ry="15.5" transform="translate(2815.93 4.56) rotate(45)"/>
    <g>
      <rect class="cls-53" x="1307.52" y="3337.2" width="104.95" height="127.11" rx="1.87" ry="1.87"/>
      <g>
        <path class="cls-35" d="M1322.7,3452.73c-1.17-.01-2.13-.68-2.13-1.49l-.34-101.72c0-.38.21-.67.38-.84.41-.41,1.07-.66,1.78-.66h14.36c.66,0,1.3.22,1.71.59l7,6.3c.61.55,1.5.87,2.43.87h24.19c.85,0,1.65-.25,2.25-.72l8.54-6.54c.41-.32.99-.5,1.6-.5h12.46c1.17,0,2.16.68,2.16,1.49l.7,102.5c0,.38-.21.67-.38.84-.41.41-1.08.66-1.78.66l-74.91-.77Z"/>
        <path class="cls-31" d="M1396.91,3348.55c.93,0,1.62.5,1.63.96l.7,102.49c0,.19-.12.36-.22.46-.31.31-.83.5-1.43.5h0l-74.88-.77c-.92,0-1.6-.51-1.6-.96l-.34-101.72c0-.19.12-.36.23-.46.31-.31.83-.5,1.4-.5h14.36c.53,0,1.04.17,1.35.45l6.99,6.3c.71.64,1.72,1,2.79,1h24.19c.96,0,1.88-.29,2.58-.83l8.54-6.54c.32-.25.78-.39,1.27-.39h12.46M1396.91,3347.48h-12.46c-.72,0-1.42.22-1.92.61l-8.54,6.54c-.51.39-1.2.61-1.92.61h-24.19c-.8,0-1.56-.27-2.07-.73l-6.99-6.3c-.51-.46-1.27-.73-2.07-.73h-14.36c-1.49,0-2.7.91-2.7,2.04l.34,101.72c0,1.11,1.19,2.01,2.66,2.03l74.88.77h.04c1.49,0,2.7-.91,2.7-2.04l-.7-102.5c0-1.12-1.21-2.02-2.7-2.02h0Z"/>
      </g>
      <g>
        <path class="cls-31" d="M1484.95,3453.98c-28.52-8.29-58.81-8.29-87.33,0v-106.43c28.52-8.29,58.81-8.29,87.33,0v106.43Z"/>
        <path class="cls-7" d="M1484.95,3453.98c-28.52-8.29-58.81-8.29-87.33,0v-106.43c28.52-8.29,58.81-8.29,87.33,0v106.43Z"/>
      </g>
      <g>
        <path class="cls-48" d="M1473.69,3360.78c-21.01-4.47-43.26-4.47-64.27,0-.44.09-.8.44-.8.78,0,.34.36.53.8.44,21.01-4.47,43.26-4.47,64.27,0,.44.1.8-.1.8-.44,0-.34-.36-.69-.8-.78Z"/>
        <path class="cls-48" d="M1473.69,3380.03c-21.01-4.47-43.26-4.47-64.27,0-.44.1-.8-.1-.8-.44,0-.34.36-.69.8-.78,21.01-4.47,43.26-4.47,64.27,0,.44.09.8.44.8.78,0,.34-.36.53-.8.44Z"/>
        <path class="cls-48" d="M1473.69,3396.85c-21.01-4.47-43.26-4.47-64.27,0-.44.1-.8.44-.8.78,0,.33.36.53.8.44,21.01-4.47,43.26-4.47,64.27,0,.44.09.8-.1.8-.44,0-.34-.36-.69-.8-.78Z"/>
        <path class="cls-48" d="M1473.69,3416.11c-21.01-4.47-43.26-4.47-64.27,0-.44.09-.8-.1-.8-.44,0-.33.36-.69.8-.78,21.01-4.47,43.26-4.47,64.27,0,.44.09.8.45.8.78,0,.34-.36.54-.8.44Z"/>
        <path class="cls-48" d="M1473.69,3434.15c-21.01-4.47-43.26-4.47-64.27,0-.44.1-.8-.1-.8-.44,0-.34.36-.69.8-.78,21.01-4.47,43.26-4.47,64.27,0,.44.09.8.45.8.78,0,.33-.36.53-.8.44Z"/>
      </g>
      <path class="cls-35" d="M1374.93,3354.18c0-2.42-1.29-4.4-2.86-4.4h-24.07c-1.57,0-2.86,1.98-2.86,4.4h0"/>
      <g>
        <circle class="cls-54" cx="1358.19" cy="3404.65" r="20.2"/>
        <path class="cls-35" d="M1360.6,3414.53c-.04.89.67,1.41,2.13,1.55.53.05.95.49.95,1.03h0c0,.57-.46,1.04-1.04,1.04h-8.92c-.57,0-1.04-.46-1.04-1.04h0c0-.54.41-.97.95-1.03,1.4-.15,2.1-.67,2.1-1.55v-10.78c0-.9-.7-1.43-2.1-1.58-.53-.06-.94-.49-.94-1.03h0c0-.58.46-1.04,1.04-1.04h5.83c.57,0,1.04.46,1.04,1.04v13.39ZM1360.9,3395.14c-.03.1-.07.21-.12.31-.66,1.17-1.58,1.75-2.77,1.75-.43,0-.82-.08-1.19-.25-.37-.17-.69-.38-.96-.66-.27-.27-.49-.59-.66-.96-.17-.37-.25-.76-.25-1.19,0-1.18.58-2.11,1.75-2.76.09-.05.2-.1.31-.12,1.26-.31,2.3-.05,3.12.76.81.81,1.07,1.85.76,3.11Z"/>
      </g>
      <path class="cls-19" d="M1493.57,3434.62l-23.31-2.89c-.28-.03-.54.16-.58.44l-3.53,23.22c-.07.47.46.78.84.5l7.7-5.84c.23-.18.56-.13.74.1l12.43,16.41c.18.23.51.28.74.1l9.76-7.39c.23-.18.28-.51.1-.74l-12.43-16.41c-.18-.23-.13-.56.1-.74l7.7-5.84c.38-.29.22-.88-.25-.94Z"/>
    </g>
  </g>
  <g>
    <rect class="cls-40" x="3256.04" y="2511.03" width="282.96" height="282.96" rx="15.5" ry="15.5" transform="translate(2870.72 -1625.51) rotate(45)"/>
    <g>
      <path class="cls-34" d="M3385.65,2729.71c0,6.56,5.32,11.88,11.88,11.88s11.88-5.32,11.88-11.88h-23.75Z"/>
      <path class="cls-34" d="M3376.56,2700.02h41.94c2.49-12.81,10.43-25.25,18.75-38.3,9.66-15.15,19.66-30.84,19.66-46.07,0-28.79-26.64-52.22-59.39-52.22s-59.39,23.42-59.39,52.22c0,15.24,10,30.92,19.66,46.07,8.33,13.05,16.28,25.49,18.76,38.3Z"/>
      <path class="cls-35" d="M3375.66,2649.08c.12-.66.43-1,.77-1.08.18-.09.48-.05.48-.05.12.07.36.17.58.43.98,1.02,1.69,2.72,2.26,4.28.21.59.39,1.21.56,1.82-1.24-.23-2.42-.74-3.19-1.47-1.09-1.03-1.69-2.67-1.45-3.93ZM3395.73,2638.7c.49-.74,1.13-1.16,1.79-1.16s1.3.42,1.79,1.16c.58.92.38,2.17-.19,3.4-.42.87-.99,1.69-1.6,2.49-.62-.8-1.19-1.62-1.6-2.49-.57-1.23-.77-2.48-.19-3.4ZM3415.31,2652.67c.56-1.56,1.28-3.26,2.25-4.28.23-.26.47-.36.59-.43,0,0,.29-.04.48.05.33.08.64.43.77,1.08.24,1.27-.36,2.91-1.45,3.93-.77.73-1.94,1.24-3.19,1.47.18-.61.36-1.22.56-1.82ZM3381.04,2657.25c.43,1.77.81,3.55,1.26,5.26.79,3.24,1.55,6.37,2.29,9.41,2.73,11.16,5.14,20.74,7.04,28.1h1.76c-1.56-7.46-3.69-17.22-6.25-28.59-.69-3.03-1.4-6.19-2.14-9.44-.39-1.58-.72-3.19-1.09-4.85,2.47-.54,7.88-2.38,13.61-8.58,5.74,6.19,11.14,8.03,13.61,8.58-.37,1.65-.7,3.26-1.09,4.85-.73,3.25-1.45,6.4-2.13,9.44-2.56,11.37-4.69,21.13-6.25,28.59h1.76c1.91-7.35,4.31-16.94,7.04-28.1.73-3.04,1.5-6.17,2.29-9.41.44-1.72.83-3.5,1.26-5.26,2.24-.15,4.39-.85,6.07-2.39,1.72-1.69,2.61-3.9,2.21-6.26-.18-1.13-1.02-2.59-2.66-3.09-.75-.24-1.51-.3-2.47-.05-.8.3-1.38.75-1.78,1.18-1.58,1.76-2.16,3.51-2.81,5.25-.3.88-.55,1.75-.79,2.61,0,0-2.52.2-7.92-3.43-3-2.02-3.87-3.48-4.74-4.44.94-1.05,1.84-2.19,2.54-3.57.37-.77.68-1.61.79-2.56.1-.94-.07-2.02-.61-2.94-.54-.91-1.32-1.74-2.57-2.25-.54-.2-1.14-.29-1.75-.29s-1.21.09-1.75.29c-1.25.51-2.03,1.35-2.57,2.25-.54.92-.71,2-.61,2.94.11.94.42,1.79.79,2.56.69,1.39,1.6,2.53,2.54,3.57-.87.96-1.74,2.42-4.74,4.44-5.4,3.63-7.93,3.43-7.93,3.43-.23-.86-.48-1.73-.78-2.61-.65-1.74-1.22-3.49-2.81-5.25-.4-.43-.98-.88-1.78-1.18-.96-.24-1.72-.19-2.47.05-1.64.5-2.48,1.96-2.66,3.09-.4,2.35.49,4.57,2.21,6.26,1.67,1.54,3.82,2.24,6.06,2.39Z"/>
      <rect class="cls-8" x="3376.3" y="2705.84" width="42.57" height="5.46"/>
      <rect class="cls-17" x="3379.27" y="2716.77" width="36.63" height="5.46"/>
      <rect class="cls-34" x="3379.27" y="2711.3" width="36.63" height="5.46"/>
      <polygon class="cls-15" points="3418.87 2705.84 3379.27 2716.77 3379.27 2722.23 3418.87 2711.3 3418.87 2705.84"/>
      <rect class="cls-16" x="3382.24" y="2727.69" width="30.7" height="5.46"/>
      <rect class="cls-34" x="3382.24" y="2722.23" width="30.7" height="5.46"/>
      <polygon class="cls-11" points="3415.9 2716.77 3382.24 2727.69 3382.24 2733.15 3415.9 2722.23 3415.9 2716.77"/>
    </g>
  </g>
  <path class="cls-40" d="M3397.53,1491.14h0c78.09,0,141.48,63.4,141.48,141.48h0c0,78.09-63.4,141.48-141.48,141.48h0c-78.09,0-141.48-63.4-141.48-141.48h0c0-78.09,63.4-141.48,141.48-141.48Z" transform="translate(2149.55 -1924.23) rotate(45)"/>
  <g>
    <path class="cls-34" d="M3355.41,1636.13c-10.56-27.47-37.09-21.6-37.09-21.6,0,0,41.68-28.79,61.19-1.05l-24.1,22.65Z"/>
    <path class="cls-19" d="M3370.32,1619.83l9.18-6.34c-19.51-27.74-61.19,1.04-61.19,1.04,0,0,35-16.58,52.01,5.3Z"/>
    <path class="cls-34" d="M3370.12,1657.05c22.35,19.33,7.6,41.96,7.6,41.96,0,0,41.68-28.78,22.17-56.53l-29.78,14.57Z"/>
    <path class="cls-19" d="M3390.72,1648.83l9.18-6.34c19.51,27.74-22.17,56.53-22.17,56.53,0,0,27.82-26.8,12.99-50.19Z"/>
    <g>
      <path class="cls-35" d="M3369.85,1658.31c-7.27,0-12.4-2.06-15.25-6.12-2.09-2.97-2.74-6.75-1.93-11.23,2.67-14.93,21.09-36.1,46.94-53.95,24.05-16.61,47.18-20.09,62.35-20.09,8.09,0,12.97,1.01,13.17,1.06.6.13.99.7.91,1.3-.05.38-1.41,9.4-7.54,21.82-5.64,11.43-16.58,27.97-36.63,41.82-22.69,15.66-46.45,25.39-62.01,25.39Z"/>
      <path class="cls-34" d="M3461.96,1568.07c8.06,0,12.93,1.03,12.93,1.03,0,0-5.25,36.31-43.68,62.85-22.92,15.83-46.28,25.19-61.35,25.19-6.6,0-11.61-1.79-14.3-5.62-8.84-12.58,11.76-40.81,44.71-63.57,24.33-16.8,47.77-19.89,61.69-19.89M3461.96,1565.75v2.32-2.32h0c-15.34,0-38.72,3.52-63.01,20.3-26.09,18.02-44.7,39.49-47.42,54.7-.86,4.8-.14,8.88,2.13,12.1,3.04,4.32,8.64,6.61,16.2,6.61,15.79,0,39.8-9.81,62.67-25.6,20.26-13.99,31.31-30.71,37.01-42.26,6.21-12.58,7.59-21.78,7.65-22.17.17-1.21-.62-2.35-1.81-2.6-.21-.04-5.2-1.08-13.41-1.08h0Z"/>
    </g>
    <path class="cls-35" d="M3345.14,1661.14c3.07-5.17,3.27-6.29,6-4.1,2.74,2.2,1.91,2.81-1.17,7.97-2.29,3.85-5.93,3.99-5.93,3.99,0,0-1.18-4.02,1.11-7.87Z"/>
    <g>
      <path class="cls-31" d="M3337.23,1678.94c-.03-.1-.57-1.99-.59-4.77-2.33.82-4.8,1.24-7.35,1.24-3.46,0-5.82-.78-5.92-.81l-.82-.27.02-.86c0-.28.24-6.54,4.99-12.18-2.61-.98-4.22-2.13-4.3-2.19l-.74-.54.35-.84c.11-.27,2.85-6.63,11.37-8.15,1.08-.19,2.08-.38,2.98-.55,2.99-.56,5.16-.96,6.79-.96,3.34,0,4.63,1.78,5.79,5.07.4.5.79,1.01,1.17,1.55.38.55.74,1.08,1.07,1.63,5,4.09,3.71,6.22-.46,13.12-.48.79-1,1.65-1.56,2.59-4.39,7.4-11.36,7.75-11.65,7.76l-.91.03-.25-.87Z"/>
      <path class="cls-34" d="M3344.03,1649.21c2.6,0,3.61,1.13,4.76,4.48.4.48.8,1.02,1.25,1.65.45.63.81,1.2,1.13,1.74,4.89,3.94,3.4,5.05-2.13,14.35-4.12,6.94-10.7,7.19-10.7,7.19,0,0-.76-2.61-.48-6.18-3.12,1.41-6.13,1.82-8.57,1.82-3.31,0-5.55-.75-5.55-.75,0,0,.2-7.07,5.9-12.76-3.48-.98-5.68-2.59-5.68-2.59,0,0,2.51-6.03,10.51-7.46,4.65-.83,7.57-1.49,9.57-1.49M3344.03,1646.89c-1.74,0-3.83.39-7,.98-.91.17-1.89.35-2.98.55-9.13,1.63-12.11,8.55-12.24,8.85l-.7,1.69,1.48,1.08c.07.05,1.22.88,3.13,1.74-4.07,5.6-4.29,11.38-4.3,11.66l-.05,1.72,1.63.55c.11.04,2.64.87,6.28.87,2.16,0,4.25-.28,6.26-.84.16,2.09.54,3.45.57,3.53l.5,1.74,1.81-.07c.32-.01,7.89-.39,12.6-8.33.56-.94,1.08-1.8,1.55-2.58,4.17-6.91,5.94-9.84.36-14.49-.32-.51-.65-1.01-1.01-1.53-.36-.51-.72-.99-1.09-1.46-1.04-2.92-2.51-5.65-6.82-5.65h0Z"/>
    </g>
    <path class="cls-35" d="M3342.85,1657.87c5.96-1.06,7.08-.86,5.95-4.16-1.13-3.3-2-2.74-7.95-1.67-4.44.79-5.83,4.14-5.83,4.14,0,0,3.39,2.49,7.83,1.69Z"/>
    <path class="cls-35" d="M3340.29,1657.03c6.31-4.36,7.05-5.53,9.75-1.7,2.7,3.84,1.34,4.13-4.98,8.48-4.69,3.25-9.62,1.61-9.62,1.61,0,0,.15-5.14,4.85-8.39Z"/>
    <path class="cls-31" d="M3425.56,1622.85c-32.96,22.76-64.16,35.9-69.47,28.35-5.31-7.55,17.94-32.02,50.89-54.77,38.42-26.54,68.44-27.65,68.44-27.65,0,0-11.43,27.53-49.86,54.07Z"/>
    <path class="cls-19" d="M3365.29,1661.04c-1.41.98-3.28.75-4.28-.65l-11.8-16.79c-.99-1.4-.72-3.45.7-4.43l5.13-3.55,15.38,21.88-5.13,3.54Z"/>
    <path class="cls-34" d="M3361.92,1656.25c-1.42.98-2.96,1.2-3.52.41l-6.63-9.43c-.56-.79.1-2.29,1.52-3.27l5.13-3.55,8.64,12.29-5.13,3.55Z"/>
    <path class="cls-34" d="M3356.71,1661.31c-.91.63-2.42.35-3.06-.57l-7.67-10.91c-.64-.92-.2-2.13.72-2.77l3.33-2.31,10.02,14.24-3.34,2.31Z"/>
    <path class="cls-19" d="M3355.2,1659.15c-.92.63-2.23.62-2.68-.02l-5.35-7.6c-.45-.64.12-1.67,1.04-2.31l3.34-2.3,6.99,9.93-3.34,2.31Z"/>
    <path class="cls-19" d="M3474.89,1569.11s-13-2.78-31.7.73l20.03,28.49c9.8-16.17,11.67-29.22,11.67-29.22Z"/>
    <path class="cls-34" d="M3475.77,1568.22s-11.72,1.18-28.7,7.15l12.26,17.43c11.53-13.72,16.44-24.58,16.44-24.58Z"/>
    <path class="cls-35" d="M3425.09,1593.07c6.64,1.18,11.06,7.46,9.88,14.05-1.19,6.58-7.53,10.96-14.17,9.79-6.64-1.18-11.06-7.46-9.88-14.04,1.19-6.58,7.53-10.96,14.17-9.79Z"/>
    <ellipse class="cls-34" cx="3422.94" cy="1604.99" rx="8.14" ry="8.07"/>
    <path class="cls-35" d="M3396.74,1612.65c6.64,1.18,11.06,7.46,9.88,14.04-1.19,6.58-7.53,10.96-14.17,9.79-6.64-1.18-11.06-7.46-9.88-14.05,1.19-6.58,7.53-10.96,14.17-9.79Z"/>
    <path class="cls-34" d="M3396.02,1616.62c4.43.78,7.37,4.98,6.58,9.36-.79,4.39-5.02,7.31-9.45,6.53-4.43-.78-7.37-4.98-6.58-9.36.79-4.39,5.02-7.31,9.45-6.53Z"/>
    <path class="cls-31" d="M3441.71,1574.8c-.91.64-2.19.41-2.83-.5-.64-.92-.41-2.17.5-2.81.93-.64,2.2-.41,2.84.5.65.92.42,2.17-.51,2.81Z"/>
    <path class="cls-35" d="M3445.56,1577.78c1.11.2,1.84,1.24,1.65,2.34-.2,1.1-1.25,1.83-2.36,1.63-1.11-.2-1.84-1.24-1.65-2.34.2-1.1,1.25-1.83,2.36-1.63Z"/>
    <path class="cls-35" d="M3450.22,1584.4c1.11.2,1.84,1.25,1.65,2.34-.2,1.1-1.26,1.83-2.36,1.63-1.11-.2-1.84-1.24-1.65-2.34.2-1.1,1.26-1.83,2.36-1.63Z"/>
    <path class="cls-35" d="M3454.87,1591.02c1.11.2,1.84,1.25,1.65,2.34-.2,1.1-1.26,1.83-2.36,1.63-1.11-.2-1.84-1.24-1.65-2.34.2-1.1,1.26-1.83,2.36-1.63Z"/>
    <path class="cls-31" d="M3459.53,1597.64c1.11.2,1.84,1.24,1.65,2.34-.2,1.1-1.26,1.83-2.36,1.63-1.11-.2-1.84-1.25-1.65-2.34.2-1.1,1.26-1.83,2.36-1.63Z"/>
  </g>
  <g>
    <rect class="cls-40" x="726.42" y="3259.93" width="282.96" height="282.96" rx="141.48" ry="141.48" transform="translate(2659.36 382.55) rotate(45)"/>
    <g>
      <g>
        <path class="cls-5" d="M873.08,3462.26c-.52-.01-1.27-.03-1.79-.05-.08-.02-.16-.03-.25-.03-.26-.02-.52-.04-.75.06-.2.08-.4.15-.62.15h-3.53c-.21,0-.42-.06-.62-.15-.23-.1-.49-.08-.75-.06-.1,0-.2,0-.29.04-.21.09-.43.16-.66.16h-.38c-.26,0-.51-.08-.75-.2-.13-.06-.29-.04-.43-.05-6.03-.58-11.91-1.85-17.46-4.26-21.06-9.14-33.61-24.96-37.55-47.48-.19-1.08-.36-2.13-.45-3.27-.04-.51-.22-1-.22-1.51v-5.94c0-.15.02-.3.06-.44.19-.64.17-3.22.2-3.45,1.61-15.22,7.75-28.38,19.19-38.64,18.39-16.49,39.73-20.93,63.04-12.67,28.71,10.17,44.9,39.63,38.91,69.29-5.02,24.9-25.77,44.31-51.24,47.98-1.22.18-2.48.15-3.67.51ZM918.67,3401.53c-.31-27.96-22.55-50.36-50.77-50.37-28.06,0-50.63,22.22-50.7,50.25-.06,27.85,22.31,50.38,50.64,50.43,28.1.05,50.47-22.24,50.83-50.31Z"/>
        <path class="cls-6" d="M869.67,3463.01h-3.53c-.28,0-.56-.06-.86-.2-.09-.04-.29-.02-.44-.01-.33.09-.64.21-1.01.21h-.38c-.32,0-.65-.08-1.01-.26-.02,0-.17,0-.21,0,0,0-.01,0-.01,0-6.69-.65-12.46-2.06-17.65-4.31-21.2-9.2-33.96-25.33-37.92-47.94-.21-1.2-.37-2.22-.45-3.33-.02-.2-.06-.39-.1-.59-.06-.32-.12-.64-.12-.97v-5.94c0-.23.03-.43.08-.62.12-.4.15-2.09.16-2.73,0-.32.01-.54.02-.61,1.68-15.87,8.21-29.01,19.4-39.04,18.75-16.81,40.17-21.12,63.66-12.8,28.9,10.24,45.44,39.68,39.32,70.01-5.1,25.27-25.9,44.75-51.76,48.47-.43.06-.87.1-1.3.14-.8.07-1.56.13-2.28.35-.06.02-.13.03-.2.03l-1.79-.05c-.06,0-.12-.01-.17-.03-.27-.01-.47-.03-.56,0-.31.13-.59.2-.86.2ZM865.1,3461.54c.2,0,.44.03.67.13.14.06.26.09.37.09h3.53c.1,0,.22-.03.37-.09.39-.17.77-.13,1.05-.11.05,0,.16,0,.29.03l1.62.04c.81-.23,1.64-.3,2.43-.37.41-.04.82-.07,1.23-.13,25.34-3.64,45.72-22.73,50.71-47.48,6-29.71-10.2-58.55-38.51-68.58-23.03-8.16-44.02-3.94-62.41,12.55-10.95,9.82-17.34,22.68-18.99,38.24,0,.06,0,.25-.01.5-.02,1.27-.05,2.54-.21,3.07-.02.07-.03.16-.03.26v5.94c0,.24.05.48.1.72.05.24.1.49.12.74.08,1.06.23,2.05.44,3.21,3.89,22.17,16.4,37.99,37.19,47.01,5.06,2.2,10.71,3.58,17.27,4.21.23,0,.43.01.64.11.2.09.35.14.48.14h.38c.11,0,.23-.03.41-.11.2-.09.4-.1.55-.09.08,0,.19-.02.32-.02ZM867.93,3452.47h-.09c-13.84-.02-26.77-5.34-36.41-14.97-9.61-9.6-14.89-22.42-14.86-36.08.06-28.53,22.6-50.88,51.31-50.88h0c28.5,0,51.08,22.4,51.4,50.99,0,0,0,0,0,.01-.36,28.57-22.92,50.93-51.37,50.93ZM867.89,3351.79c-28.01,0-50,21.8-50.06,49.63-.03,13.33,5.12,25.83,14.49,35.2,9.4,9.4,22.02,14.58,35.52,14.6.03,0,.06,0,.09,0,27.76,0,49.76-21.81,50.12-49.68-.31-27.89-22.34-49.74-50.15-49.74h0Z"/>
      </g>
      <g>
        <path class="cls-35" d="M867.83,3452.45c-13.83-.02-26.76-5.34-36.4-14.97-9.61-9.6-14.88-22.41-14.85-36.07.03-13.7,5.37-26.51,15.03-36.07,9.64-9.54,22.52-14.79,36.27-14.79,28.5,0,51.07,22.4,51.39,50.97-.36,28.56-22.92,50.93-51.36,50.93h-.09Z"/>
        <path class="cls-19" d="M867.88,3351.16h0c28.22,0,50.46,22.41,50.77,50.37-.36,28.04-22.68,50.31-50.74,50.31h-.08c-28.33-.05-50.7-22.58-50.64-50.43.06-28.03,22.64-50.25,50.69-50.25M867.89,3349.94h0c-13.91,0-26.94,5.32-36.7,14.97-9.78,9.67-15.18,22.64-15.21,36.5-.03,13.82,5.31,26.79,15.03,36.51,9.75,9.74,22.83,15.12,36.83,15.15h.09c13.88,0,26.89-5.32,36.62-14.99,9.72-9.65,15.17-22.62,15.34-36.52-.15-13.91-5.58-26.88-15.28-36.55-9.74-9.71-22.78-15.06-36.71-15.06h0Z"/>
      </g>
      <path class="cls-6" d="M835.71,3404.66c.6-2.35,1.2-4.68,1.79-7.01.08-.31.17-.61.25-.92.16-.63.67-.49,1.07-.43.65.09.26.54.18.82-.82,2.94-1.67,5.86-2.48,8.8-.16.58-.4.84-1.05.83-.72,0-.73-.48-.83-.92-.59-2.5-1.18-5-1.81-7.7-.71,2.62-1.36,5.05-2.03,7.48-.15.54-.11,1.17-1.03,1.15-.93-.01-.84-.67-.98-1.2-.7-2.68-1.41-5.36-2.05-8.06-.08-.36-.72-.97.16-1.22.87-.24,1.06.35,1.2,1.03.47,2.17.98,4.32,1.47,6.49.08.34.09.7.37.99.66-2.54,1.33-5.06,1.98-7.59.13-.53.22-.93.95-.95.76-.02.83.45.94.95.51,2.2,1,4.4,1.5,6.6.07.3.05.64.38.87Z"/>
      <path class="cls-6" d="M870.55,3361.87c0-.49.04-.84.69-.82.59.02.62.35.62.77,0,2.97,0,5.94,0,8.91,0,.34.07.74-.48.79-.56.05-.97-.08-1.29-.61-1.44-2.41-2.92-4.81-4.39-7.21-.1-.17-.2-.34-.36-.59-.33.49-.11,5.5-.09,7.56,0,.45.03.86-.65.86-.68,0-.65-.42-.65-.87,0-2.85-.01-5.7.01-8.55,0-.37-.27-.95.44-1.03.55-.06,1.05-.07,1.42.55,1.48,2.44,3.12,4.78,4.49,7.29.07.13.11.35.21.39.36.13.05-5.81.03-7.43Z"/>
      <path class="cls-6" d="M903.49,3401.47c0-1.43.03-2.85-.01-4.28-.02-.73.25-.96.97-.93,1.31.05,2.63.01,3.95.02.35,0,.73-.06.75.5.02.55-.27.66-.74.65-.96-.01-1.92.01-2.87,0-.5,0-.76.17-.71.69,0,.04,0,.08,0,.12-.15,2.5-.15,2.47,2.36,2.53.57.01,1.63-.46,1.65.47.02,1.12-1.11.52-1.69.54-2.32.08-2.24.04-2.35,2.34-.06,1.24.34,1.61,1.53,1.47.79-.09,1.59,0,2.39-.02.42,0,.67.11.68.59,0,.52-.29.56-.69.56-1.48,0-2.95-.03-4.43,0-.69.02-.78-.32-.78-.87.02-1.47,0-2.93,0-4.4Z"/>
      <path class="cls-6" d="M868.87,3431.23c.19.04.66.12,1.12.22.4.09.66.28.51.75-.14.44-.39.51-.82.35-.65-.23-1.32-.27-2-.15-.64.12-1.1.47-1.27,1.11-.18.69.05,1.29.64,1.65.68.41,1.42.71,2.13,1.07,1.48.76,2.07,1.81,1.82,3.25-.23,1.3-1.22,2.2-2.75,2.41-.96.13-1.91.02-2.82-.32-.4-.15-.74-.29-.54-.84.2-.58.53-.43.92-.25.67.3,1.39.35,2.11.29.82-.07,1.47-.42,1.68-1.26.22-.87-.08-1.57-.86-2.02-.48-.28-1-.5-1.5-.73-1.83-.83-2.55-1.98-2.17-3.47.33-1.29,1.73-2.11,3.82-2.06Z"/>
      <g>
        <g>
          <path class="cls-41" d="M874.36,3405.6c-.19.18-.36.39-.56.55-7.78,5.97-15.56,11.93-23.35,17.89-.18.14-.37.25-.55.37-.26-.24-.05-.41.03-.56,4.66-8.77,9.32-17.54,13.99-26.3.09-.17.23-.32.35-.47.62.54,1.24,1.07,1.86,1.61-.12.23-.25.46-.37.7-.76,1.49-.74,2.95.21,4.32.93,1.33,2.25,1.85,3.88,1.67,1.05-.12,1.82-.74,2.61-1.34.63.52,1.26,1.04,1.9,1.56Z"/>
          <path class="cls-41" d="M866.13,3398.68c-.62-.54-1.24-1.07-1.86-1.61.22-.2.42-.42.66-.6,7.65-5.87,15.31-11.74,22.97-17.61.23-.17.47-.33.69-.48.29.23.1.41.02.56-4.65,8.75-9.3,17.5-13.95,26.24-.08.14-.19.26-.29.4-.63-.52-1.26-1.04-1.9-1.56.12-.23.25-.46.36-.7.75-1.48.72-2.95-.23-4.3-.92-1.33-2.24-1.85-3.87-1.67-1.05.11-1.82.73-2.61,1.32Z"/>
        </g>
        <g>
          <path class="cls-6" d="M866.13,3398.68c.79-.59,1.56-1.21,2.61-1.32,1.63-.18,2.94.34,3.87,1.67.95,1.36.98,2.82.23,4.3-.12.23-.24.46-.36.7-.79.6-1.56,1.22-2.61,1.34-1.63.18-2.96-.34-3.88-1.67-.95-1.37-.98-2.83-.21-4.32.12-.23.25-.46.37-.7Z"/>
          <path class="cls-4" d="M872.53,3404.09s0,0-.01.01l-.12.09c-.74.57-1.51,1.15-2.54,1.27-1.71.19-3.05-.38-3.97-1.71-.95-1.36-1.02-2.85-.22-4.41.08-.16.17-.32.25-.48l.12-.22s.01-.02.02-.03l.11-.09c.74-.56,1.51-1.14,2.54-1.25,1.7-.19,3.03.39,3.95,1.71.95,1.36,1.02,2.84.23,4.39-.08.16-.16.32-.25.48l-.12.22s0,.01-.01.02ZM866.2,3398.74l-.11.2c-.09.16-.17.31-.25.47-.77,1.5-.7,2.92.21,4.23.88,1.27,2.16,1.82,3.8,1.63.98-.11,1.69-.65,2.45-1.23l.1-.08.11-.2c.08-.16.17-.32.25-.47.76-1.5.69-2.91-.22-4.21-.88-1.26-2.15-1.81-3.79-1.63-.98.11-1.69.65-2.45,1.22l-.1.07Z"/>
        </g>
      </g>
      <path class="cls-38" d="M867.9,3462.69c-33.98,0-61.63-27.49-61.63-61.28s27.65-61.28,61.63-61.28,61.63,27.49,61.63,61.28-27.65,61.28-61.63,61.28ZM867.9,3340.76c-33.64,0-61.01,27.21-61.01,60.65s27.37,60.65,61.01,60.65,61.01-27.21,61.01-60.65-27.37-60.65-61.01-60.65Z"/>
    </g>
  </g>
  <g>
    <g class="cls-66">
      <g>
        <path class="cls-35" d="M3350.26,2034.62c1.02,2.69,2.75,8.63,1.53,15.79-1.62,9.47-11.66,17.33-15.37,19.95-.36.26-.86.26-1.22,0-3.71-2.61-13.75-10.47-15.37-19.95-1.22-7.15.51-13.1,1.53-15.79.16-.41.58-.67,1.05-.64.76.06,1.71.11,2.7.11,1.44,0,2.69-.1,3.74-.3,2.47-.47,4.87-1.85,6.36-2.84.36-.24.83-.24,1.18,0,1.49.99,3.9,2.37,6.36,2.84,1.05.2,2.31.3,3.74.3,1,0,1.94-.05,2.71-.11.46-.03.89.23,1.05.64Z"/>
        <path class="cls-3" d="M3351.79,2050.4c-1.62,9.47-11.66,17.33-15.37,19.95-.36.26-.86.26-1.22,0-3.71-2.61-13.75-10.47-15.37-19.95-1.22-7.15.51-13.1,1.53-15.79.16-.41.58-.67,1.05-.64.76.06,1.71.11,2.7.11,1.44,0,2.69-.1,3.74-.3,2.47-.47,4.87-1.85,6.36-2.84.36-.24.83-.24,1.18,0,1.49.99,3.9,2.37,6.36,2.84,1.05.2,2.31.3,3.74.3,1,0,1.94-.05,2.71-.11.46-.03.89.23,1.05.64,1.02,2.69,2.75,8.63,1.53,15.79Z"/>
      </g>
    </g>
    <g>
      <path class="cls-36" d="M3341.57,2046.55h-11.51c-.53,0-.96.41-.96.91v10.33c0,.71.43,1.29.96,1.29h11.51c.53,0,.96-.58.96-1.29v-10.33c0-.5-.43-.91-.96-.91ZM3334.57,2055.6l.52-3.44c-.31-.23-.5-.61-.5-1.03,0-.71.55-1.28,1.23-1.28s1.23.57,1.23,1.28c0,.43-.2.8-.5,1.03l.52,3.44h-2.49Z"/>
      <path class="cls-36" d="M3335.81,2040.29c-2.89,0-5.24,2.84-5.24,6.33,0,.21,1.78.21,1.78,0,0-1.91,1.32-4.17,3.46-4.17s3.46,2.27,3.46,4.17c0,.21,1.78.21,1.78,0,0-3.49-2.35-6.33-5.24-6.33Z"/>
    </g>
  </g>
  <g>
    <path class="cls-40" d="M356.03,3263.03l-152.68,268.71c-3.08,5.42.84,12.16,7.07,12.16h305.35c6.24,0,10.16-6.73,7.07-12.16l-152.68-268.71c-3.12-5.49-11.03-5.49-14.15,0Z"/>
    <g>
      <g>
        <path class="cls-34" d="M363.11,3501.59c-32.49,0-58.93-26.39-58.93-58.82,0-8.27,1.68-16.25,5-23.75l63.45-34.31c4.11.67,8.14,1.77,12,3.28l1.13,2.6c.14.31.4.55.73.65.11.03.22.05.34.05.22,0,.44-.06.63-.19l1.71-1.11c19.99,9.85,32.88,30.5,32.88,52.77,0,32.43-26.44,58.82-58.93,58.82Z"/>
        <path class="cls-19" d="M372.83,3385.93c3.73.63,7.4,1.63,10.92,2.98l.94,2.16c.27.62.8,1.1,1.46,1.3.22.07.45.1.67.1.44,0,.88-.13,1.26-.37l1.16-.75c9.17,4.65,16.94,11.66,22.52,20.33,5.97,9.28,9.12,20.03,9.12,31.11,0,31.79-25.92,57.66-57.77,57.66s-57.77-25.87-57.77-57.66c0-7.97,1.6-15.68,4.74-22.92l62.75-33.93M372.42,3383.51l-64.14,34.68c-3.38,7.5-5.26,15.82-5.26,24.58,0,33.12,26.9,59.98,60.09,59.98s60.09-26.85,60.09-59.98c0-23.84-13.94-44.43-34.12-54.1l-2.26,1.46-1.32-3.04c-4.15-1.66-8.52-2.88-13.07-3.58h0Z"/>
      </g>
      <g>
        <path class="cls-19" d="M314.04,3420.56c1.88,3.59,4.11-1.2,3.94,2.39-.17,3.59,2.4,11.62,3.94,10.59,1.54-1.03,1.54-6.9,4.28-7.64,2.74-.73,6.67-5.35,7.87-3.3,1.2,2.05.86,5.81,1.88,4.96,1.03-.85,2.39,0,2.22,2.56-.17,2.56,2.23,6.15,2.91,7.52.69,1.37-4.28-3.93-6.67-7.18-2.4-3.24,1.71,6.84,4.79,10.59,3.08,3.76,14.72,6.49,17.8,8.03,3.08,1.54,11.47-2.9,8.22-2.73,0,0-7.36,1.03-10.1-.34-2.74-1.37-8.9-1.37-9.93-3.25-1.03-1.88-1.03-4.62-2.91-7.18-1.88-2.56-3.08-7.18-.51-5.13,2.57,2.05,5.31,2.39,5.65,1.03.34-1.37-4.79-5.98-1.54-8.03,3.25-2.05,6.33-.51,7.88-2.05,1.54-1.54,5.14-6.15,4.28-8.37-.86-2.22-1.03-3.76,0-4.44,1.03-.68-4.97-.68-2.57-2.39,2.39-1.71,4.96-3.24,5.13,0,.17,3.25,0,6.15,1.2,6.15s3.08-3.59,2.57-5.12c-.52-1.54.51-4.95,2.91-5.12,2.39-.17,5.13-4.1,5.82-8.03.68-3.93.69-7.01-1.2-6.66-1.66.3-1.87-2.06.51-3.9-3.03-.47-6.14-.72-9.3-.72-24.41,0-45.43,14.53-54.83,35.4,1.96-.1,4.63.21,5.76,2.36Z"/>
        <path class="cls-19" d="M384.39,3394.59c-1.35,2.38,2.26-.95,4.68-5.92-1.17-.56-2.37-1.09-3.58-1.57.05,2.05-.04,5.62-1.1,7.5Z"/>
        <path class="cls-19" d="M367.62,3412.53c2.74-1.88,7.19-1.88,7.19-5.64s10.78-10.25,8.22-10.08c-2.57.17-7.53,4.96-7.53,1.71s0-9.22-.68-10.76c-.84-1.88-.36,8.71-1.12,10.59-.76,1.88.09,8.37-2.3,9.22-2.4.86-6.51,2.56-6.51,4.96s0,1.88,2.74,0Z"/>
        <path class="cls-19" d="M357.5,3430.86c1.07,4.29-1.48,4.9-2.28,4.21-.8-.68,2.02-5.26,2.28-4.21ZM370.74,3444.19c1.48,1.14-.8,4.33.8,3.64,1.6-.68,3.31,1.1,4.11.1.8-1.01.91-1.78,3.42.31,2.51,2.1,4.33,1.66,2.74,0-1.6-1.66-3.08-4.5-6.39-5.47,0,0-3.54-.4-6.05-1.54,0,0-3.44-1.82-4.51-.68-1.08,1.14-.93-3.19-1.74-2.39-.81.8.44,3.42-1.96,2.73-2.4-.68-3.2.12-3.88-1.82-.68-1.94-4.11-.91-1.37-2.39,2.74-1.48,4.11-1.94,4.22-.8.12,1.14,2.86-1.03,1.83-4.1-1.03-3.07-3.77-2.05-3.65-5.92.05-1.77-2.74.68-2.29,2.85.46,2.16-.57,2.62-1.6,4.33-1.03,1.71-5.25,5.7-6.39,5.7s-.8,2.28,0,3.64c.8,1.37,4.79,1.6,5.59,1.82.8.23,1.71-6.15,1.94-4.44.23,1.71.57,6.83,1.14,5.7.57-1.14,2.74.46,2.74-.68s-.91-3.06,1.26-1.99c2.17,1.08,5.14,1.76,5.02.51-.11-1.25,3.54-.23,5.02.91Z"/>
        <path class="cls-19" d="M380.44,3458.09c-3.31-2.96-4.79-7.74-5.59-8.43-1.32-1.13-.72,4.1-1.16,5.12-.44,1.03-2.38-1.25-3.29-1.71-.92-.46-.34-1.14,0-2.05.34-.91-1.71-1.7-3.31-1.37-1.6.34-1.62-.12-2.23,1.14-.62,1.25-.13,2.35-1.74,1.51-1.62-.83-2.64.42-3.78,1.68-1.14,1.25-1.6,1.71-2.05,2.62-.46.91-6.73.34-6.73,3.3s2.63,5.35,2.05,7.63c-.57,2.28.46,4.67,2.4,3.53,1.94-1.14,4.79-.8,5.59-1.71.8-.91,6.16-2.39,7.08-.68.91,1.71,1.94,2.63,3.54,2.69,1.6.05,1.83,1.53,1.83,2.67s2.39.23,3.76.68c1.37.46,4.68.11,4.91-2.51.23-2.62,1.71-4.44,2.28-5.81.57-1.37-.23-5.35-3.54-8.32Z"/>
        <path class="cls-19" d="M377.47,3476.31c-1.6-.23-.34,3.53.69,3.87,1.03.34,1.57-2.24,1.49-3.87-.07-1.23-.57.23-2.17,0Z"/>
        <path class="cls-19" d="M402.69,3473.01c-1.03.11-1.83-2.51-2.51-1.94-1.34,1.12,1.6,3.76,0,5.24-1.6,1.48-2.05,3.71-3.31,3.9-1.26.2-3.19,2.02-1.94,3.04,1.26,1.03,3.2,0,3.88-1.94.68-1.94,1.26-2.75,2.63-3.31,1.37-.56,1.26-2.16,2.51-3.13,1.25-.97-.23-1.99-1.26-1.88Z"/>
      </g>
    </g>
  </g>
  <g>
    <rect class="cls-40" x="3256.04" y="4008.4" width="282.96" height="282.96" rx="15.5" ry="15.5" transform="translate(3929.52 -1186.94) rotate(45)"/>
    <g>
      <path class="cls-10" d="M3460.92,4097.28c0-4.94-4.13-8.95-9.22-8.95h-108.35c-5.09,0-9.22,4.01-9.22,8.95v50.75h126.8v-50.75Z"/>
      <g>
        <path class="cls-35" d="M3343.35,4229.67c-4.44,0-8.06-4.66-8.06-10.4v-70.09h124.48v70.09c0,5.73-3.62,10.4-8.07,10.4h-108.35Z"/>
        <path class="cls-34" d="M3458.6,4150.34v68.93c0,5.09-3.1,9.24-6.91,9.24h-108.35c-3.81,0-6.9-4.14-6.9-9.24v-68.93h122.16M3460.92,4148.03h-126.8v71.25c0,6.38,4.13,11.56,9.22,11.56h108.35c5.09,0,9.22-5.17,9.22-11.56v-71.25h0Z"/>
      </g>
      <path class="cls-19" d="M3355.79,4098.03c3.82,0,6.92,3.01,6.92,6.72s-3.1,6.72-6.92,6.72-6.92-3.01-6.92-6.72,3.1-6.72,6.92-6.72Z"/>
      <path class="cls-19" d="M3383.72,4098.03c3.82,0,6.92,3.01,6.92,6.72s-3.1,6.72-6.92,6.72-6.92-3.01-6.92-6.72,3.1-6.72,6.92-6.72Z"/>
      <path class="cls-19" d="M3411.32,4098.03c3.82,0,6.92,3.01,6.92,6.72s-3.1,6.72-6.92,6.72-6.92-3.01-6.92-6.72,3.1-6.72,6.92-6.72Z"/>
      <path class="cls-19" d="M3438.93,4098.03c3.82,0,6.91,3.01,6.91,6.72s-3.1,6.72-6.91,6.72-6.91-3.01-6.91-6.72,3.1-6.72,6.91-6.72Z"/>
      <path class="cls-13" d="M3412.77,4074.24s.06.02.11.03c-.05,0-.09-.02-.13-.03h.01ZM3421.42,4075.16c-1.49-2.93-4-6.08-8.54-6.22-4.37-.14-4.43,4.99-.21,5.29,0,0,.02,0,.03,0-.12.02.98.74.64.39,1.01,1.03,1.53,2.07,2.03,3.23,1.44,3.36,1.85,6.94,1.87,10.46h6.9c-.03-4.41-.62-9.02-2.72-13.16Z"/>
      <path class="cls-14" d="M3385.17,4074.24s.06.02.11.03c-.05,0-.09-.02-.12-.03h0ZM3393.82,4075.16c-1.48-2.93-4-6.08-8.53-6.22-4.38-.14-4.43,4.99-.21,5.29,0,0,.02,0,.03,0-.12.02.98.74.64.39,1.01,1.03,1.54,2.07,2.03,3.23,1.44,3.36,1.84,6.94,1.86,10.46h6.91c-.03-4.41-.63-9.02-2.72-13.16Z"/>
      <path class="cls-12" d="M3357.57,4074.24s.06.02.11.03c-.05,0-.09-.02-.12-.03h.01ZM3366.22,4075.16c-1.48-2.93-4.01-6.08-8.54-6.22-4.37-.14-4.43,4.99-.21,5.29.01,0,.02,0,.03,0-.12.02.98.74.64.39,1.01,1.03,1.54,2.07,2.04,3.23,1.44,3.36,1.84,6.94,1.86,10.46h6.9c-.04-4.41-.63-9.02-2.72-13.16Z"/>
      <path class="cls-28" d="M3440.37,4074.24s.06.02.12.03c-.05,0-.09-.02-.13-.03h0ZM3449.03,4075.16c-1.48-2.93-4.01-6.08-8.54-6.22-4.38-.14-4.43,4.99-.21,5.29,0,0,.02,0,.02,0-.12.02.98.74.64.39,1.01,1.03,1.54,2.07,2.03,3.23,1.44,3.36,1.84,6.94,1.87,10.46h6.9c-.03-4.41-.62-9.02-2.72-13.16Z"/>
      <path class="cls-34" d="M3411.32,4102.4c-.8-.02.79.15,0-.02.8.17.19.05-.06-.06.86.4-.81-.72-.4-.31-1.01-1.03-1.53-2.07-2.03-3.23-1.44-3.36-1.84-6.94-1.87-10.46-.02-3.53.49-7.07,1.87-10.46.46-1.12.98-2.01,1.84-3.02.12-.14.3-.31.87-.69-.61.4,0,.05.16-.02-.46.14-.51.17-.16.08-.54.04-.62.04-.23.03,4.44-.14,4.45-5.45,0-5.31-4.59.14-6.97,3.3-8.54,6.22-2.18,4.08-2.69,8.8-2.72,13.16-.03,4.39.63,9.05,2.72,13.17,1.48,2.93,4.01,6.08,8.54,6.22,4.45.14,4.44-5.17,0-5.31Z"/>
      <path class="cls-34" d="M3383.72,4102.4c-.8-.02.78.15,0-.02.8.17.19.05-.05-.06.85.4-.82-.72-.41-.31-1.01-1.03-1.54-2.07-2.03-3.23-1.45-3.36-1.85-6.94-1.87-10.46-.02-3.53.49-7.07,1.87-10.46.45-1.12.97-2.01,1.84-3.02.11-.14.3-.31.87-.69-.61.4,0,.05.16-.02-.46.14-.51.17-.16.08-.54.04-.62.04-.23.03,4.44-.14,4.45-5.45,0-5.31-4.59.14-6.98,3.3-8.54,6.22-2.19,4.08-2.69,8.8-2.72,13.16-.03,4.39.64,9.05,2.72,13.17,1.48,2.93,4,6.08,8.54,6.22,4.45.14,4.44-5.17,0-5.31Z"/>
      <path class="cls-34" d="M3356.12,4102.4c-.8-.02.79.15,0-.02.81.17.19.05-.05-.06.85.4-.81-.72-.41-.31-1.01-1.03-1.53-2.07-2.03-3.23-1.44-3.36-1.84-6.94-1.87-10.46-.03-3.53.5-7.07,1.87-10.46.46-1.12.97-2.01,1.85-3.02.11-.14.3-.31.86-.69-.61.4,0,.05.16-.02-.46.14-.51.17-.15.08-.54.04-.62.04-.24.03,4.43-.14,4.45-5.45,0-5.31-4.59.14-6.97,3.3-8.53,6.22-2.18,4.08-2.69,8.8-2.72,13.16-.03,4.39.64,9.05,2.72,13.17,1.48,2.93,4,6.08,8.53,6.22,4.45.14,4.43-5.17,0-5.31Z"/>
      <path class="cls-34" d="M3438.92,4102.4c-.79-.02.79.15,0-.02.81.17.19.05-.05-.06.85.4-.82-.72-.41-.31-1.01-1.03-1.54-2.07-2.03-3.23-1.44-3.36-1.85-6.94-1.87-10.46-.02-3.53.5-7.07,1.87-10.46.46-1.12.96-2.01,1.84-3.02.12-.14.31-.31.87-.69-.61.4,0,.05.17-.02-.46.14-.52.17-.16.08-.54.04-.62.04-.23.03,4.44-.14,4.45-5.45,0-5.31-4.59.14-6.98,3.3-8.53,6.22-2.18,4.08-2.69,8.8-2.72,13.16-.03,4.39.63,9.05,2.72,13.17,1.48,2.93,4.01,6.08,8.53,6.22,4.45.14,4.44-5.17,0-5.31Z"/>
      <path class="cls-9" d="M3404.55,4088.32c.03-3.7.51-7.41,1.95-10.95.65-1.59,2.11-4.9,4.82-4.98,1.33-.04,1.34-1.63,0-1.59-3.33.1-5.09,2.78-6.2,4.85-2.11,3.94-2.61,8.46-2.63,12.67,0,1.03,2.06,1.03,2.07,0Z"/>
      <path class="cls-9" d="M3376.95,4088.32c.02-3.7.51-7.41,1.96-10.95.64-1.59,2.1-4.9,4.82-4.98,1.33-.04,1.34-1.63,0-1.59-3.33.1-5.1,2.78-6.21,4.85-2.1,3.94-2.6,8.46-2.63,12.67,0,1.03,2.07,1.03,2.07,0Z"/>
      <path class="cls-9" d="M3349.35,4088.32c.02-3.7.51-7.41,1.95-10.95.65-1.59,2.1-4.9,4.82-4.98,1.33-.04,1.34-1.63,0-1.59-3.33.1-5.1,2.78-6.21,4.85-2.11,3.94-2.6,8.46-2.63,12.67,0,1.03,2.07,1.03,2.07,0Z"/>
      <path class="cls-9" d="M3432.15,4088.32c.03-3.7.52-7.41,1.96-10.95.64-1.59,2.1-4.9,4.81-4.98,1.33-.04,1.34-1.63,0-1.59-3.33.1-5.09,2.78-6.2,4.85-2.11,3.94-2.61,8.46-2.64,12.67-.02,1.03,2.06,1.03,2.07,0Z"/>
      <path class="cls-35" d="M3370.23,4132.05v.56c.05,1.89.24,3.23.6,3.99.36.77,1.13,1.15,2.31,1.15s1.94-.42,2.32-1.26c.22-.5.33-1.34.33-2.52v-17.12h5.27v17.04c0,2.08-.36,3.73-1.09,4.95-1.23,2.06-3.44,3.09-6.64,3.09s-5.35-.84-6.44-2.5c-1.09-1.67-1.64-3.94-1.64-6.82v-.56h4.98Z"/>
      <path class="cls-35" d="M3386.63,4116.85h5.36v15.04c0,1.68.2,2.91.61,3.68.64,1.37,2.02,2.06,4.16,2.06s3.51-.69,4.14-2.06c.41-.77.61-2,.61-3.68v-15.04h5.35v15.05c0,2.6-.42,4.63-1.24,6.08-1.55,2.66-4.51,3.99-8.87,3.99s-7.32-1.33-8.88-3.99c-.83-1.45-1.25-3.48-1.25-6.08v-15.05h0Z"/>
      <polygon class="cls-35" points="3411.94 4116.85 3417.2 4116.85 3417.2 4136.93 3429.79 4136.93 3429.79 4141.33 3411.94 4141.33 3411.94 4116.85"/>
      <g>
        <g>
          <path class="cls-30" d="M3362.95,4178.75v-6.59c2.99-.13,5.08-.34,6.28-.61,1.9-.43,3.46-1.29,4.65-2.58.82-.88,1.44-2.06,1.86-3.53.25-.88.37-1.54.37-1.97h7.92v49.24h-9.72v-33.95h-11.35Z"/>
          <path class="cls-30" d="M3432.1,4171.68c-1.42,1.43-3.4,3.97-5.93,7.62-2.54,3.66-4.66,7.43-6.37,11.33-1.36,3.06-2.59,6.79-3.67,11.2-1.09,4.42-1.64,8.04-1.64,10.87h-9.86c.29-8.83,3.13-18.01,8.53-27.54,3.5-5.91,6.41-10.03,8.77-12.36h-24.05l.13-8.69h34.09v7.57Z"/>
        </g>
        <g>
          <path class="cls-27" d="M3362.95,4178.75v-6.59c2.99-.13,5.08-.34,6.28-.61,1.9-.43,3.46-1.29,4.65-2.58.82-.88,1.44-2.06,1.86-3.53.25-.88.37-1.54.37-1.97h7.92v49.24h-9.72v-33.95h-11.35Z"/>
          <path class="cls-29" d="M3432.1,4171.68c-1.42,1.43-3.4,3.97-5.93,7.62-2.54,3.66-4.66,7.43-6.37,11.33-1.36,3.06-2.59,6.79-3.67,11.2-1.09,4.42-1.64,8.04-1.64,10.87h-9.86c.29-8.83,3.13-18.01,8.53-27.54,3.5-5.91,6.41-10.03,8.77-12.36h-24.05l.13-8.69h34.09v7.57Z"/>
        </g>
      </g>
    </g>
  </g>
  <g>
    <rect class="cls-40" x="5255.42" y="3259.93" width="282.96" height="282.96" rx="15.5" ry="15.5" transform="translate(3985.87 -2819.93) rotate(45)"/>
    <g>
      <path class="cls-20" d="M5460.3,3348.8c0-4.94-4.13-8.95-9.22-8.95h-108.35c-5.09,0-9.22,4.01-9.22,8.95v50.75h126.8v-50.75Z"/>
      <g>
        <path class="cls-35" d="M5342.72,3481.19c-4.44,0-8.06-4.66-8.06-10.4v-70.09h124.48v70.09c0,5.73-3.62,10.4-8.07,10.4h-108.35Z"/>
        <path class="cls-34" d="M5457.98,3401.87v68.93c0,5.09-3.1,9.24-6.91,9.24h-108.35c-3.81,0-6.9-4.14-6.9-9.24v-68.93h122.16M5460.3,3399.55h-126.8v71.25c0,6.38,4.13,11.56,9.22,11.56h108.35c5.09,0,9.22-5.17,9.22-11.56v-71.25h0Z"/>
      </g>
      <path class="cls-19" d="M5355.16,3349.55c3.82,0,6.92,3.01,6.92,6.72s-3.1,6.72-6.92,6.72-6.92-3.01-6.92-6.72,3.1-6.72,6.92-6.72Z"/>
      <path class="cls-19" d="M5383.09,3349.55c3.82,0,6.92,3.01,6.92,6.72s-3.1,6.72-6.92,6.72-6.92-3.01-6.92-6.72,3.1-6.72,6.92-6.72Z"/>
      <path class="cls-19" d="M5410.69,3349.55c3.82,0,6.92,3.01,6.92,6.72s-3.1,6.72-6.92,6.72-6.92-3.01-6.92-6.72,3.1-6.72,6.92-6.72Z"/>
      <path class="cls-19" d="M5438.3,3349.55c3.82,0,6.91,3.01,6.91,6.72s-3.1,6.72-6.91,6.72-6.91-3.01-6.91-6.72,3.1-6.72,6.91-6.72Z"/>
      <path class="cls-24" d="M5412.14,3325.77s.06.02.11.03c-.05,0-.09-.02-.13-.03h.01ZM5420.8,3326.68c-1.49-2.93-4-6.08-8.54-6.22-4.37-.14-4.43,4.99-.21,5.29,0,0,.02,0,.03,0-.12.02.98.74.64.39,1.01,1.03,1.53,2.07,2.03,3.23,1.44,3.36,1.85,6.94,1.87,10.46h6.9c-.03-4.41-.62-9.02-2.72-13.16Z"/>
      <path class="cls-21" d="M5384.54,3325.77s.06.02.11.03c-.05,0-.09-.02-.12-.03h0ZM5393.19,3326.68c-1.48-2.93-4-6.08-8.53-6.22-4.38-.14-4.43,4.99-.21,5.29,0,0,.02,0,.03,0-.12.02.98.74.64.39,1.01,1.03,1.54,2.07,2.03,3.23,1.44,3.36,1.84,6.94,1.86,10.46h6.91c-.03-4.41-.63-9.02-2.72-13.16Z"/>
      <path class="cls-26" d="M5356.94,3325.77s.06.02.11.03c-.05,0-.09-.02-.12-.03h.01ZM5365.6,3326.68c-1.48-2.93-4.01-6.08-8.54-6.22-4.37-.14-4.43,4.99-.21,5.29.01,0,.02,0,.03,0-.12.02.98.74.64.39,1.01,1.03,1.54,2.07,2.04,3.23,1.44,3.36,1.84,6.94,1.86,10.46h6.9c-.04-4.41-.63-9.02-2.72-13.16Z"/>
      <path class="cls-25" d="M5439.74,3325.77s.06.02.12.03c-.05,0-.09-.02-.13-.03h0ZM5448.4,3326.68c-1.48-2.93-4.01-6.08-8.54-6.22-4.38-.14-4.43,4.99-.21,5.29,0,0,.02,0,.02,0-.12.02.98.74.64.39,1.01,1.03,1.54,2.07,2.03,3.23,1.44,3.36,1.84,6.94,1.87,10.46h6.9c-.03-4.41-.62-9.02-2.72-13.16Z"/>
      <path class="cls-34" d="M5410.69,3353.92c-.8-.02.79.15,0-.02.8.17.19.05-.06-.06.86.4-.81-.72-.4-.31-1.01-1.03-1.53-2.07-2.03-3.23-1.44-3.36-1.84-6.94-1.87-10.46-.02-3.53.49-7.07,1.87-10.46.46-1.12.98-2.01,1.84-3.02.12-.14.3-.31.87-.69-.61.4,0,.05.16-.02-.46.14-.51.17-.16.08-.54.04-.62.04-.23.03,4.44-.14,4.45-5.45,0-5.31-4.59.14-6.97,3.3-8.54,6.22-2.18,4.08-2.69,8.8-2.72,13.16-.03,4.39.63,9.05,2.72,13.17,1.48,2.93,4.01,6.08,8.54,6.22,4.45.14,4.44-5.17,0-5.31Z"/>
      <path class="cls-34" d="M5383.09,3353.92c-.8-.02.78.15,0-.02.8.17.19.05-.05-.06.85.4-.82-.72-.41-.31-1.01-1.03-1.54-2.07-2.03-3.23-1.45-3.36-1.85-6.94-1.87-10.46-.02-3.53.49-7.07,1.87-10.46.45-1.12.97-2.01,1.84-3.02.11-.14.3-.31.87-.69-.61.4,0,.05.16-.02-.46.14-.51.17-.16.08-.54.04-.62.04-.23.03,4.44-.14,4.45-5.45,0-5.31-4.59.14-6.98,3.3-8.54,6.22-2.19,4.08-2.69,8.8-2.72,13.16-.03,4.39.64,9.05,2.72,13.17,1.48,2.93,4,6.08,8.54,6.22,4.45.14,4.44-5.17,0-5.31Z"/>
      <path class="cls-34" d="M5355.49,3353.92c-.8-.02.79.15,0-.02.81.17.19.05-.05-.06.85.4-.81-.72-.41-.31-1.01-1.03-1.53-2.07-2.03-3.23-1.44-3.36-1.84-6.94-1.87-10.46-.03-3.53.5-7.07,1.87-10.46.46-1.12.97-2.01,1.85-3.02.11-.14.3-.31.86-.69-.61.4,0,.05.16-.02-.46.14-.51.17-.15.08-.54.04-.62.04-.24.03,4.43-.14,4.45-5.45,0-5.31-4.59.14-6.97,3.3-8.53,6.22-2.18,4.08-2.69,8.8-2.72,13.16-.03,4.39.64,9.05,2.72,13.17,1.48,2.93,4,6.08,8.53,6.22,4.45.14,4.43-5.17,0-5.31Z"/>
      <path class="cls-34" d="M5438.3,3353.92c-.79-.02.79.15,0-.02.81.17.19.05-.05-.06.85.4-.82-.72-.41-.31-1.01-1.03-1.54-2.07-2.03-3.23-1.44-3.36-1.85-6.94-1.87-10.46-.02-3.53.5-7.07,1.87-10.46.46-1.12.96-2.01,1.84-3.02.12-.14.31-.31.87-.69-.61.4,0,.05.17-.02-.46.14-.52.17-.16.08-.54.04-.62.04-.23.03,4.44-.14,4.45-5.45,0-5.31-4.59.14-6.98,3.3-8.53,6.22-2.18,4.08-2.69,8.8-2.72,13.16-.03,4.39.63,9.05,2.72,13.17,1.48,2.93,4.01,6.08,8.53,6.22,4.45.14,4.44-5.17,0-5.31Z"/>
      <path class="cls-9" d="M5403.93,3339.85c.03-3.7.51-7.41,1.95-10.95.65-1.59,2.11-4.9,4.82-4.98,1.33-.04,1.34-1.63,0-1.59-3.33.1-5.09,2.78-6.2,4.85-2.11,3.94-2.61,8.46-2.63,12.67,0,1.03,2.06,1.03,2.07,0Z"/>
      <path class="cls-9" d="M5376.32,3339.85c.02-3.7.51-7.41,1.96-10.95.64-1.59,2.1-4.9,4.82-4.98,1.33-.04,1.34-1.63,0-1.59-3.33.1-5.1,2.78-6.21,4.85-2.1,3.94-2.6,8.46-2.63,12.67,0,1.03,2.07,1.03,2.07,0Z"/>
      <path class="cls-9" d="M5348.72,3339.85c.02-3.7.51-7.41,1.95-10.95.65-1.59,2.1-4.9,4.82-4.98,1.33-.04,1.34-1.63,0-1.59-3.33.1-5.1,2.78-6.21,4.85-2.11,3.94-2.6,8.46-2.63,12.67,0,1.03,2.07,1.03,2.07,0Z"/>
      <path class="cls-9" d="M5431.53,3339.85c.03-3.7.52-7.41,1.96-10.95.64-1.59,2.1-4.9,4.81-4.98,1.33-.04,1.34-1.63,0-1.59-3.33.1-5.09,2.78-6.2,4.85-2.11,3.94-2.61,8.46-2.64,12.67-.02,1.03,2.06,1.03,2.07,0Z"/>
      <path class="cls-35" d="M5369.6,3383.57v.56c.05,1.89.24,3.23.6,3.99.36.77,1.13,1.15,2.31,1.15s1.94-.42,2.32-1.26c.22-.5.33-1.34.33-2.52v-17.12h5.27v17.04c0,2.08-.36,3.73-1.09,4.95-1.23,2.06-3.44,3.09-6.64,3.09s-5.35-.84-6.44-2.5c-1.09-1.67-1.64-3.94-1.64-6.82v-.56h4.98Z"/>
      <path class="cls-35" d="M5386.01,3368.37h5.36v15.04c0,1.68.2,2.91.61,3.68.64,1.37,2.02,2.06,4.16,2.06s3.51-.69,4.14-2.06c.41-.77.61-2,.61-3.68v-15.04h5.35v15.05c0,2.6-.42,4.63-1.24,6.08-1.55,2.66-4.51,3.99-8.87,3.99s-7.32-1.33-8.88-3.99c-.83-1.45-1.25-3.48-1.25-6.08v-15.05h0Z"/>
      <polygon class="cls-35" points="5411.31 3368.37 5416.57 3368.37 5416.57 3388.45 5429.16 3388.45 5429.16 3392.86 5411.31 3392.86 5411.31 3368.37"/>
      <g>
        <g>
          <path class="cls-30" d="M5362.32,3430.27v-6.59c2.99-.13,5.08-.34,6.28-.61,1.9-.43,3.46-1.29,4.65-2.58.82-.88,1.44-2.06,1.86-3.53.25-.88.37-1.54.37-1.97h7.92v49.24h-9.72v-33.95h-11.35Z"/>
          <path class="cls-30" d="M5431.47,3423.2c-1.42,1.43-3.4,3.97-5.93,7.62-2.54,3.66-4.66,7.43-6.37,11.33-1.36,3.06-2.59,6.79-3.67,11.2-1.09,4.42-1.64,8.04-1.64,10.87h-9.86c.29-8.83,3.13-18.01,8.53-27.54,3.5-5.91,6.41-10.03,8.77-12.36h-24.05l.13-8.69h34.09v7.57Z"/>
        </g>
        <g>
          <path class="cls-23" d="M5362.32,3430.27v-6.59c2.99-.13,5.08-.34,6.28-.61,1.9-.43,3.46-1.29,4.65-2.58.82-.88,1.44-2.06,1.86-3.53.25-.88.37-1.54.37-1.97h7.92v49.24h-9.72v-33.95h-11.35Z"/>
          <path class="cls-22" d="M5431.47,3423.2c-1.42,1.43-3.4,3.97-5.93,7.62-2.54,3.66-4.66,7.43-6.37,11.33-1.36,3.06-2.59,6.79-3.67,11.2-1.09,4.42-1.64,8.04-1.64,10.87h-9.86c.29-8.83,3.13-18.01,8.53-27.54,3.5-5.91,6.41-10.03,8.77-12.36h-24.05l.13-8.69h34.09v7.57Z"/>
        </g>
      </g>
    </g>
  </g>
  <g>
    <rect class="cls-40" x="1795.56" y="3259.93" width="282.96" height="282.96" rx="18.4" ry="18.4" transform="translate(3874.09 6802.82) rotate(180)"/>
    <g>
      <g>
        <path class="cls-34" d="M1993.46,3397.49h-14.06c-.53-8.8-2.83-17.38-6.71-25.21,2.92-1.9,5.7-4.05,8.33-6.41,7.1,8.76,11.63,19.69,12.44,31.62Z"/>
        <path class="cls-34" d="M1979.3,3406.72h14.06c-1.07,11.4-5.53,21.81-12.34,30.24-2.63-2.38-5.41-4.51-8.33-6.41,3.68-7.43,5.93-15.53,6.61-23.82Z"/>
        <path class="cls-19" d="M1937.04,3335.6c36.29,0,65.81,29.52,65.81,65.81s-29.52,65.81-65.81,65.81-65.81-29.52-65.81-65.81,29.52-65.81,65.81-65.81ZM1979.4,3397.49h14.06c-.82-11.93-5.35-22.86-12.44-31.62-2.63,2.37-5.41,4.51-8.33,6.41,3.88,7.83,6.18,16.41,6.71,25.21ZM1993.36,3406.72h-14.06c-.68,8.3-2.93,16.39-6.61,23.82,2.92,1.9,5.7,4.03,8.33,6.41,6.81-8.43,11.28-18.84,12.34-30.24ZM1941.65,3397.49h28.49c-.52-7.35-2.45-14.34-5.56-20.72-7.15,3.3-14.88,5.3-22.92,5.85v14.88ZM1970.02,3406.72h-28.37v13.49c8.05.55,15.78,2.53,22.92,5.83,2.92-5.96,4.8-12.49,5.45-19.33ZM1974.64,3443.64c-2.1-1.88-4.3-3.58-6.61-5.11-1.07,1.55-2.2,3.07-3.4,4.53-4.38,5.31-9.55,9.9-15.26,13.58,9.55-2.13,18.19-6.7,25.27-12.99ZM1968.01,3364.3c2.32-1.53,4.53-3.25,6.63-5.13-7.08-6.3-15.73-10.85-25.29-12.98,5.68,3.65,10.83,8.2,15.18,13.46,1.23,1.5,2.4,3.05,3.48,4.65ZM1959.83,3368.77c-4.76-6.7-10.95-12.34-18.18-16.44v21.02c6.36-.52,12.48-2.07,18.18-4.58ZM1941.65,3450.48c7.21-4.1,13.41-9.75,18.16-16.44-5.7-2.52-11.81-4.06-18.16-4.56v21.01ZM1932.42,3450.68v-21.21c-6.46.52-12.68,2.12-18.46,4.7,4.8,6.75,11.08,12.41,18.46,16.51ZM1932.42,3420.21v-13.49h-28.62c.63,6.9,2.52,13.48,5.43,19.46,7.21-3.38,15.04-5.41,23.19-5.96ZM1932.42,3397.49v-14.88c-8.13-.57-15.93-2.58-23.12-5.95-3.13,6.41-5.1,13.44-5.61,20.82h28.74ZM1932.42,3373.35v-21.17c-7.3,4.11-13.56,9.78-18.36,16.51,5.75,2.57,11.95,4.15,18.36,4.66ZM1924.36,3346.28c-9.41,2.17-17.94,6.68-24.92,12.91,2.05,1.83,4.2,3.5,6.45,5,1.08-1.57,2.22-3.07,3.42-4.53,4.33-5.23,9.41-9.75,15.06-13.38ZM1899.45,3443.64c6.96,6.23,15.49,10.75,24.91,12.91-5.9-3.82-11.2-8.58-15.63-14.09-1-1.25-1.95-2.52-2.83-3.82-2.27,1.5-4.41,3.17-6.45,5ZM1901.2,3430.66c-3.7-7.46-5.98-15.59-6.66-23.94h-13.81c1.07,11.4,5.51,21.81,12.34,30.24,2.57-2.33,5.28-4.43,8.13-6.3ZM1894.44,3397.49c.53-8.85,2.85-17.46,6.76-25.34-2.85-1.85-5.56-3.95-8.13-6.28-7.11,8.76-11.65,19.69-12.46,31.62h13.83Z"/>
        <path class="cls-34" d="M1970.14,3397.49h-28.49v-14.88c8.05-.55,15.78-2.55,22.92-5.85,3.12,6.38,5.05,13.38,5.56,20.72Z"/>
        <path class="cls-34" d="M1941.65,3406.72h28.37c-.65,6.83-2.53,13.36-5.45,19.33-7.15-3.3-14.88-5.28-22.92-5.83v-13.49Z"/>
        <path class="cls-34" d="M1968.02,3438.52c2.32,1.53,4.51,3.23,6.61,5.11-7.08,6.3-15.73,10.86-25.27,12.99,5.71-3.68,10.88-8.26,15.26-13.58,1.2-1.47,2.33-2.98,3.4-4.53Z"/>
        <path class="cls-34" d="M1974.64,3359.17c-2.1,1.88-4.31,3.6-6.63,5.13-1.08-1.6-2.25-3.15-3.48-4.65-4.35-5.26-9.5-9.81-15.18-13.46,9.56,2.13,18.21,6.68,25.29,12.98Z"/>
        <path class="cls-34" d="M1941.65,3352.32c7.23,4.1,13.41,9.75,18.18,16.44-5.7,2.52-11.81,4.06-18.18,4.58v-21.02Z"/>
        <path class="cls-34" d="M1959.81,3434.04c-4.75,6.7-10.95,12.34-18.16,16.44v-21.01c6.35.5,12.46,2.05,18.16,4.56Z"/>
        <path class="cls-34" d="M1932.42,3429.48v21.21c-7.38-4.1-13.66-9.76-18.46-16.51,5.78-2.58,12-4.18,18.46-4.7Z"/>
        <path class="cls-34" d="M1932.42,3406.72v13.49c-8.15.55-15.98,2.58-23.19,5.96-2.92-5.98-4.8-12.56-5.43-19.46h28.62Z"/>
        <path class="cls-34" d="M1932.42,3382.61v14.88h-28.74c.52-7.38,2.48-14.41,5.61-20.82,7.2,3.37,14.99,5.38,23.12,5.95Z"/>
        <path class="cls-34" d="M1932.42,3352.17v21.17c-6.41-.52-12.61-2.1-18.36-4.66,4.8-6.73,11.06-12.39,18.36-16.51Z"/>
        <path class="cls-34" d="M1899.44,3359.19c6.98-6.23,15.51-10.75,24.92-12.91-5.65,3.63-10.73,8.15-15.06,13.38-1.2,1.47-2.33,2.97-3.42,4.53-2.25-1.5-4.4-3.17-6.45-5Z"/>
        <path class="cls-34" d="M1924.36,3456.55c-9.41-2.17-17.94-6.68-24.91-12.91,2.03-1.83,4.18-3.5,6.45-5,.88,1.3,1.83,2.57,2.83,3.82,4.43,5.51,9.73,10.28,15.63,14.09Z"/>
        <path class="cls-34" d="M1894.54,3406.72c.68,8.35,2.97,16.48,6.66,23.94-2.85,1.87-5.56,3.97-8.13,6.3-6.83-8.43-11.28-18.84-12.34-30.24h13.81Z"/>
        <path class="cls-34" d="M1901.2,3372.15c-3.92,7.88-6.23,16.49-6.76,25.34h-13.83c.82-11.93,5.35-22.86,12.46-31.62,2.57,2.33,5.28,4.43,8.13,6.28Z"/>
      </g>
      <path class="cls-7" d="M1937.04,3335.6c-36.29,0-65.81,29.52-65.81,65.81s29.52,65.81,65.81,65.81,65.81-29.52,65.81-65.81-29.52-65.81-65.81-65.81Z"/>
    </g>
  </g>
  <g>
    <path class="cls-40" d="M3397.53,5025.8h0c78.09,0,141.48,63.4,141.48,141.48h0c0,78.09-63.4,141.48-141.48,141.48h0c-78.09,0-141.48-63.4-141.48-141.48h0c0-78.09,63.4-141.48,141.48-141.48Z" transform="translate(4648.94 -888.95) rotate(45)"/>
    <g>
      <path class="cls-49" d="M3320.05,5210.95v10.29c0,5.14,5.17,10.29,10.33,10.29h134.29c5.17,0,10.33-5.14,10.33-10.29v-10.29h-154.95Z"/>
      <path class="cls-55" d="M3475,5113.33c0-5.14-5.17-10.29-10.33-10.29h-134.29c-5.17,0-10.33,5.14-10.33,10.29v97.72h154.95v-97.72Z"/>
      <rect class="cls-34" x="3330.38" y="5113.33" width="134.29" height="87.44"/>
      <g>
        <path class="cls-55" d="M3435.35,5183.54c-7.21-.91-11.87-4.38-12.38-9.44h7.53c.83,2.92,3.83,4.79,8.87,4.79s7.66-1.87,7.66-4.79-3.25-3.6-7.66-4.56l-2.81-.59c-7.59-1.51-12.06-4.24-12.06-9.31,0-4.38,4.34-7.89,10.85-8.9v-5.11h7.66v5.11c6.19.96,10.27,4.2,10.98,8.58h-7.28c-.96-2.33-3.51-3.88-7.85-3.88-3.89,0-6.38,1.64-6.38,3.88,0,2.42,2.49,3.38,6.57,4.33l2.17.5c8.1,1.92,13.85,3.51,13.85,9.58,0,5.11-4.91,8.8-12.06,9.76v5.25h-7.66v-5.2Z"/>
        <g>
          <g>
            <line class="cls-39" x1="3340.05" y1="5188.74" x2="3400.75" y2="5188.74"/>
            <g>
              <line class="cls-45" x1="3340.05" y1="5188.74" x2="3340.05" y2="5187.66"/>
              <line class="cls-50" x1="3378.79" y1="5188.74" x2="3378.79" y2="5187.66"/>
            </g>
          </g>
          <g>
            <line class="cls-39" x1="3340.05" y1="5188.74" x2="3340.05" y2="5145.64"/>
            <g>
              <line class="cls-50" x1="3340.05" y1="5188.74" x2="3341.99" y2="5188.74"/>
              <line class="cls-39" x1="3340.05" y1="5177.97" x2="3341.99" y2="5177.97"/>
              <line class="cls-39" x1="3340.05" y1="5167.19" x2="3341.99" y2="5167.19"/>
              <line class="cls-39" x1="3340.05" y1="5156.41" x2="3341.99" y2="5156.41"/>
              <line class="cls-39" x1="3340.05" y1="5145.64" x2="3341.99" y2="5145.64"/>
            </g>
          </g>
          <rect class="cls-55" x="3347.55" y="5175.15" width="5.9" height="5.88"/>
          <rect class="cls-55" x="3358.37" y="5167.56" width="5.9" height="5.88"/>
          <rect class="cls-55" x="3367.72" y="5169.27" width="5.9" height="5.88"/>
          <rect class="cls-55" x="3379.28" y="5157.27" width="5.9" height="5.88"/>
          <rect class="cls-55" x="3395.52" y="5169.03" width="5.9" height="5.88"/>
          <rect class="cls-55" x="3403.63" y="5150.41" width="5.9" height="5.88"/>
        </g>
      </g>
      <g>
        <g>
          <g>
            <g>
              <path class="cls-32" d="M3416.8,5132.32c.08-.09.17-.16.26-.24.17-.15.33-.29.48-.48.15-.18.15-.44.01-.62-.1-.13-.25-.21-.41-.21-.06,0-.13.01-.19.04l-.3.12c-.61.25-.97.39-1.64.44-.08,0-.13.01-.17.01.07-.14.48-.53.79-.83.18-.17.22-.44.09-.65-.1-.15-.26-.24-.43-.24-.06,0-.12.01-.18.03-.64.25-1.21.35-1.93.35-.22,0-.46-.01-.7-.03.39-.3.67-.48,1.12-.73.21-.11.31-.36.25-.59-.06-.22-.26-.37-.49-.37,0,0-.02,0-.03,0-.29.02-.55.04-.79.06-.42.03-.8.06-1.22.06-.21,0-.43,0-.68-.03.02-.02.03-.03.05-.04.9-.59,1.64-1.03,2.52-1.37.24-.09.38-.36.31-.61-.06-.22-.26-.38-.49-.38-.03,0-.05,0-.08,0l-.42.07c-.98.16-1.76.29-2.5.29-.39,0-.75-.04-1.1-.11-.04,0-.09-.03-.14-.07.08-.07.23-.16.36-.21,1.12-.45,1.98-.61,3.17-.82.24-.04.42-.25.42-.5,0-.25-.17-.46-.41-.5-1.58-.3-2.78-.69-4.27-1.36-.16-.07-.31-.17-.45-.28-.22-.18-.3-.27-.33-.32.27-.1.93-.25,1.92-.25,1.12,0,2.93.19,5.14,1.12,2.11.88,3.25,2.54,4.42,4.46l.12.2c.28.48.62,1.04,1.15,1.45-.62.98-1.23,1.85-1.93,2.7-.12.11-.84.47-1.36.5.03-.03.05-.06.07-.08Z"/>
              <path class="cls-35" d="M3409.2,5122.48c1.08,0,2.81.19,4.95,1.08,1.8.75,2.82,2.02,4.18,4.25l.12.19c.23.39.52.87.92,1.28-.4.61-.8,1.19-1.23,1.74-.03-.12-.09-.24-.17-.35-.2-.27-.5-.42-.82-.42-.13,0-.25.02-.38.07l-.29.12c-.08.03-.15.06-.22.09.11-.29.09-.64-.09-.92-.19-.3-.52-.47-.86-.47-.12,0-.25.02-.37.07-.25.1-.49.17-.74.22.18-.25.24-.57.16-.88-.12-.44-.53-.74-.98-.74-.02,0-.04,0-.06,0-.28.02-.53.03-.76.05.28-.14.56-.27.85-.38.49-.19.75-.71.62-1.22-.12-.45-.53-.75-.98-.75-.05,0-.11,0-.17.01l-.11.02c.29-.18.48-.5.49-.86,0-.49-.34-.91-.83-1.01-1.43-.27-2.53-.61-3.84-1.18.18-.01.39-.02.61-.02M3409.2,5121.47c-1.43,0-2.29.29-2.36.43-.26.5.2.84.45,1.04.17.14.36.26.57.35,1.58.71,2.82,1.09,4.39,1.4-1.23.22-2.11.38-3.26.85-.2.08-.61.3-.68.5-.06.17-.09.32.04.46.13.13.32.25.5.29.41.09.8.12,1.21.12.88,0,1.81-.17,3-.37-.98.38-1.76.85-2.62,1.42-.11.07-.28.24-.36.35-.08.11-.12.27-.06.39.09.17.36.21.54.22.28.02.54.03.78.03.68,0,1.26-.07,2.05-.12-.55.3-.87.52-1.35.89-.16.13-.27.24-.23.44.04.22.4.32.63.34.27.02.53.03.77.03.73,0,1.38-.1,2.11-.39-.5.48-.94.89-.96,1.17,0,.07-.02.36.03.41.1.11.26.13.41.13.11,0,.21-.01.27-.02.86-.06,1.29-.27,2.09-.59-.22.27-.48.45-.71.68-.12.12-.23.25-.27.41s-.04.39.11.46c.12.05.26.07.4.07.7,0,1.65-.49,1.81-.69.84-1.04,1.54-2.05,2.23-3.19-.76-.35-1.16-1.13-1.53-1.75-1.28-2.1-2.47-3.75-4.66-4.66-2.15-.89-3.99-1.15-5.34-1.15h0Z"/>
            </g>
            <g class="cls-65">
              <path class="cls-18" d="M3418.51,5131.83c-.19.24-1.55.91-2.22.61-.05-.02-.09-.06-.11-.12,0,.02-.01.03-.02.05-.05.16-.04.39.11.46.67.29,2.02-.37,2.22-.61.84-1.04,1.54-2.05,2.23-3.19-.06-.03-.11-.06-.17-.09-.63,1.02-1.28,1.95-2.05,2.89Z"/>
            </g>
            <path class="cls-1" d="M3413.04,5126.54c-1.73.28-2.91.52-4.21.24-.18-.04-.37-.16-.5-.29s-.11-.28-.04-.46c.07-.2.49-.42.68-.5,1.15-.46,2.04-.63,3.26-.85-1.56-.3-2.81-.68-4.39-1.4-.2-.09-.39-.21-.57-.35-.25-.21-.71-.54-.45-1.04.14-.27,3.27-1.12,7.7.72,2.19.91,3.38,2.56,4.66,4.66.38.62.78,1.4,1.53,1.75-.69,1.14-1.39,2.15-2.23,3.19-.19.24-1.55.91-2.22.61-.15-.07-.16-.3-.11-.46.05-.16.16-.29.27-.41.23-.24.49-.42.71-.68-.8.32-1.23.53-2.09.59-.14,0-.51.07-.68-.11-.05-.05-.04-.34-.03-.41.03-.28.46-.69.96-1.17-.98.38-1.81.44-2.89.35-.23-.02-.59-.12-.63-.34-.04-.2.07-.32.23-.45.49-.38.81-.6,1.35-.89-1.07.06-1.75.18-2.83.09-.19-.02-.46-.06-.54-.22-.06-.12-.02-.28.06-.39.08-.11.24-.28.36-.35.86-.56,1.64-1.04,2.62-1.42Z"/>
          </g>
          <g>
            <path class="cls-39" d="M3415.34,5126.85c-1.11.18-1.87.34-2.7.16-.12-.03-.24-.1-.32-.19-.08-.08-.07-.18-.03-.29.04-.13.31-.27.44-.32.74-.3,1.31-.4,2.1-.54-1-.19-1.8-.44-2.81-.9-.13-.06-.25-.14-.36-.23-.16-.13-.46-.35-.29-.67.09-.17,2.1-.72,4.94.46,1.4.58,2.17,1.64,2.99,2.99.24.39.5.9.98,1.12-.44.73-.89,1.38-1.43,2.05-.12.15-.99.58-1.42.39-.1-.04-.1-.19-.07-.29s.1-.19.18-.26c.15-.15.32-.27.46-.44-.51.2-.79.34-1.34.38-.09,0-.33.05-.44-.07-.03-.03-.02-.22-.02-.26.02-.18.3-.44.62-.75-.63.24-1.16.28-1.85.23-.15-.01-.38-.08-.4-.22-.02-.13.04-.2.15-.29.31-.24.52-.38.87-.57-.69.04-1.13.11-1.81.05-.12-.01-.29-.04-.35-.14-.04-.08-.01-.18.04-.25s.16-.18.23-.23c.55-.36,1.05-.67,1.68-.91Z"/>
            <g class="cls-65">
              <path class="cls-18" d="M3418.85,5130.24c-.12.15-.99.58-1.42.39-.03-.01-.05-.04-.07-.07,0,0,0,.02-.01.03-.03.1-.03.25.07.29.43.19,1.3-.24,1.42-.39.54-.66.99-1.31,1.43-2.05-.04-.02-.07-.04-.11-.06-.41.66-.82,1.25-1.32,1.86Z"/>
            </g>
          </g>
        </g>
        <g>
          <g>
            <g>
              <path class="cls-32" d="M3427.71,5132.39c-.52-.02-1.25-.39-1.38-.51-.68-.84-1.3-1.7-1.91-2.68.53-.4.86-.97,1.15-1.45l.12-.2c1.17-1.92,2.31-3.58,4.42-4.46,2.22-.92,4.02-1.12,5.14-1.12.99,0,1.66.15,1.92.25-.02.05-.1.14-.29.29-.18.15-.33.25-.49.32-1.49.67-2.69,1.06-4.27,1.36-.24.05-.41.26-.41.5,0,.25.18.46.42.5,1.19.21,2.05.37,3.17.82.13.05.28.14.37.21-.06.04-.11.07-.15.07-.35.08-.71.11-1.1.11-.74,0-1.51-.13-2.5-.29l-.42-.07s-.06,0-.08,0c-.23,0-.43.15-.49.38-.07.25.06.51.31.61.89.34,1.62.78,2.52,1.37.01,0,.03.02.05.04-.24.02-.46.03-.68.03h0c-.42,0-.8-.03-1.22-.06-.25-.02-.51-.04-.79-.06,0,0-.02,0-.03,0-.23,0-.43.15-.49.37-.07.23.04.47.25.59.47.25.75.45,1.13.73-.25.02-.48.03-.71.03-.71,0-1.29-.11-1.93-.35-.06-.02-.12-.04-.18-.04-.17,0-.33.09-.43.24-.13.21-.1.47.08.64.3.29.7.67.8.84-.03,0-.06,0-.08-.01-.74-.05-1.11-.2-1.71-.44l-.3-.12c-.06-.02-.12-.04-.19-.04-.16,0-.31.07-.41.21-.14.19-.13.44.01.62.15.18.31.33.48.48.09.08.18.15.26.24.01.01.04.04.07.08Z"/>
              <path class="cls-35" d="M3435.25,5122.48c.22,0,.43,0,.61.02-1.31.57-2.41.91-3.84,1.18-.48.09-.83.52-.83,1.01,0,.36.19.68.48.86l-.11-.02c-.06,0-.11-.01-.17-.01-.45,0-.86.3-.98.75-.14.5.13,1.03.62,1.22.3.12.58.24.86.38-.24-.02-.49-.04-.77-.05-.02,0-.04,0-.06,0-.45,0-.85.3-.98.74-.09.31-.02.63.16.88-.25-.05-.49-.12-.74-.22-.12-.05-.24-.07-.36-.07-.34,0-.67.18-.86.48-.18.28-.2.62-.09.91-.07-.03-.15-.06-.23-.09l-.29-.12c-.12-.05-.25-.07-.38-.07-.32,0-.62.15-.82.42-.08.11-.13.23-.17.35-.43-.55-.83-1.13-1.23-1.74.41-.41.69-.89.92-1.28l.12-.19c1.36-2.23,2.38-3.5,4.18-4.25,2.14-.89,3.87-1.08,4.95-1.08h0M3435.4,5125.79h0,0M3435.25,5121.47c-1.34,0-3.19.26-5.34,1.15-2.19.91-3.38,2.56-4.66,4.66-.38.62-.78,1.4-1.53,1.75.69,1.14,1.39,2.15,2.23,3.19.16.2,1.11.69,1.81.69.15,0,.29-.02.4-.07.15-.07.16-.3.11-.46-.05-.16-.16-.29-.27-.41-.23-.24-.49-.42-.71-.68.8.32,1.23.53,2.09.59.06,0,.16.02.27.02.15,0,.31-.02.41-.13.05-.05.04-.34.03-.41-.03-.28-.46-.69-.96-1.17.73.28,1.38.39,2.11.39.25,0,.5-.01.77-.03.23-.02.59-.12.63-.34.04-.2-.06-.32-.23-.44-.49-.38-.81-.6-1.35-.89.79.04,1.37.12,2.05.12.24,0,.5,0,.78-.03.19-.02.46-.06.54-.22.06-.12.02-.28-.06-.39-.08-.11-.24-.28-.36-.35-.86-.56-1.64-1.04-2.62-1.42,1.19.19,2.11.37,3,.37.41,0,.8-.04,1.21-.12.18-.04.37-.16.5-.29.13-.13.11-.28.04-.46-.07-.2-.49-.42-.68-.5-1.15-.46-2.04-.63-3.26-.85,1.56-.3,2.81-.68,4.39-1.4.2-.09.39-.21.57-.35.25-.21.71-.54.45-1.04-.07-.14-.94-.43-2.36-.43h0Z"/>
            </g>
            <g class="cls-65">
              <path class="cls-18" d="M3425.94,5131.83c.19.24,1.55.91,2.22.61.05-.02.09-.06.11-.12,0,.02.01.03.02.05.05.16.04.39-.11.46-.67.29-2.02-.37-2.22-.61-.84-1.04-1.54-2.05-2.23-3.19.06-.03.11-.06.17-.09.63,1.02,1.28,1.95,2.05,2.89Z"/>
            </g>
            <path class="cls-2" d="M3431.4,5126.54c1.73.28,2.91.52,4.21.24.18-.04.37-.16.5-.29.13-.13.11-.28.04-.46-.07-.2-.49-.42-.68-.5-1.15-.46-2.04-.63-3.26-.85,1.56-.3,2.81-.68,4.39-1.4.2-.09.39-.21.57-.35.25-.21.71-.54.45-1.04-.14-.27-3.27-1.12-7.7.72-2.19.91-3.38,2.56-4.66,4.66-.38.62-.78,1.4-1.53,1.75.69,1.14,1.39,2.15,2.23,3.19.19.24,1.55.91,2.22.61.15-.07.16-.3.11-.46s-.16-.29-.27-.41c-.23-.24-.49-.42-.71-.68.8.32,1.23.53,2.09.59.14,0,.51.07.68-.11.05-.05.04-.34.03-.41-.03-.28-.46-.69-.96-1.17.98.38,1.81.44,2.89.35.23-.02.59-.12.63-.34.04-.2-.07-.32-.23-.45-.49-.38-.81-.6-1.35-.89,1.07.06,1.75.18,2.83.09.19-.02.46-.06.54-.22.06-.12.02-.28-.06-.39-.08-.11-.24-.28-.36-.35-.86-.56-1.64-1.04-2.62-1.42Z"/>
          </g>
          <g class="cls-65">
            <path class="cls-18" d="M3425.6,5130.24c.12.15.99.58,1.42.39.03-.01.05-.04.07-.07,0,0,0,.02.01.03.03.1.03.25-.07.29-.43.19-1.3-.24-1.42-.39-.54-.66-.99-1.31-1.43-2.05.04-.02.07-.04.11-.06.41.66.82,1.25,1.32,1.86Z"/>
          </g>
        </g>
        <path class="cls-56" d="M3428.92,5137.65c0,3.77-3.07,3.76-6.85,3.76s-6.85.01-6.85-3.76,3.07-9.89,6.85-9.89,6.85,6.12,6.85,9.89Z"/>
        <path class="cls-34" d="M3423.16,5136.63c-.12.1-.27.17-.41.22-.02-.45-.03-.9-.04-1.36.06,0,.11,0,.16.01.61.09.76.75.29,1.12ZM3422.15,5136.98c-.15.02-.29,0-.42-.03-.02-.47-.03-.94-.05-1.41.18,0,.37-.03.55-.04,0,.49.02.98.05,1.46-.04,0-.09.02-.13.02ZM3421.1,5134.99c-.14-.05-.26-.12-.36-.22-.29-.27.11-.53.36-.66.04.3.07.6.09.9-.03,0-.06-.01-.09-.02ZM3422.23,5134.01c0,.34,0,.69,0,1.03-.15,0-.29.02-.42.03-.05,0-.1,0-.15,0-.02-.37-.06-.74-.11-1.1.22-.03.45-.02.68.03ZM3423.91,5135.86c-.13-.62-.66-.8-1.21-.82,0-.29,0-.58,0-.87.17.07.33.16.48.25.26.16.49-.25.24-.41-.22-.14-.46-.25-.71-.34,0-.34,0-.68,0-1.01,0-.31-.47-.31-.47,0s0,.59,0,.89c-.25-.04-.5-.05-.75-.01-.04-.22-.09-.44-.15-.66-.08-.3-.53-.17-.45.13.06.21.1.43.14.65-.02,0-.04.01-.06.02-.63.25-1.02.87-.56,1.46.22.27.5.38.81.42.02.4.03.81.04,1.21-.21-.13-.4-.3-.57-.48-.21-.22-.54.12-.33.34.29.3.59.53.92.67.01.35.04.69.07,1.03.03.3.5.31.47,0-.03-.3-.05-.6-.06-.89.18.03.37.04.56.02.02.32.05.64.09.95.03.3.5.31.47,0-.04-.35-.07-.69-.09-1.04.66-.2,1.3-.73,1.14-1.49Z"/>
        <path class="cls-56" d="M3426.43,5123.73c0,1.88-2.45,4.96-4.36,4.96s-4.36-2.77-4.36-4.65.27,0,2.18,0c.27,0,1.6-.93,2.18-.93.41,0,1.55.93,2.18.93,1.66,0,2.18-1.73,2.18-.31Z"/>
        <path class="cls-42" d="M3426.04,5127.64c-.61.22-1.21.25-1.82.19-.01-.3-.11-.59-.32-.82-.44-.49-1.14.05-1.47.41-.58-.18-1.54-.69-2.16-.4-.44.21-.67.51-.74.83-.76.05-1.52.27-2.05.78-.29.28.15.71.44.44.44-.42,1.01-.6,1.63-.63.23.79,1.18,1.44,2.08.87.17-.11.32-.26.45-.42.2.07.39.15.56.22.69.3,1.24-.1,1.46-.66.7.08,1.41.03,2.09-.21.38-.13.21-.73-.17-.6ZM3423.56,5127.64s.01.06.02.09c-.15-.03-.31-.07-.46-.11.19-.16.37-.22.44.02ZM3422.06,5127.9c-.07.09-.14.17-.2.26-.25-.07-.5-.14-.75-.2-.28-.06-.58-.1-.89-.12.31-.45,1.16-.2,1.85.05ZM3420.15,5128.44c.43.03.86.12,1.27.23-.39.31-1.08.16-1.27-.23ZM3423.23,5128.61c-.19.07-.52-.12-.75-.23.04-.06.11-.15.18-.25.07.03.14.05.2.07.21.06.42.11.64.15-.06.12-.15.22-.27.26Z"/>
        <path class="cls-31" d="M3426.07,5123.27c-.32.23-.89.77-1.82.77-.63,0-1.77-.93-2.18-.93-.58,0-1.91.93-2.18.93-1.03,0-1.58-.54-1.87-.75,0,0-.19,1.51.87,2.21.78.52,1.21-.19,1.63-.73.42-.54.7-.83,1.39.57.38.76.94-1.54,1.5-.62,1.04,1.68,2.46.92,2.66-1.44Z"/>
      </g>
    </g>
  </g>
  <g>
    <g>
      <rect class="cls-40" x="3256.04" y="4542.88" width="282.96" height="282.96" rx="18.4" ry="18.4" transform="translate(6795.05 9368.71) rotate(180)"/>
      <g>
        <g>
          <g>
            <rect class="cls-44" x="3336.01" y="4603.34" width="123.03" height="162.03" rx="6.39" ry="6.39"/>
            <g>
              <g>
                <rect class="cls-44" x="3351.53" y="4736.69" width="43.8" height="8.82" rx="1.09" ry="1.09"/>
                <rect class="cls-44" x="3351.53" y="4720.74" width="43.8" height="8.82" rx="1.09" ry="1.09"/>
              </g>
              <g>
                <rect class="cls-44" x="3399.72" y="4736.69" width="43.8" height="8.82" rx="1.09" ry="1.09"/>
                <rect class="cls-44" x="3399.72" y="4720.74" width="43.8" height="8.82" rx="1.09" ry="1.09"/>
              </g>
            </g>
          </g>
          <path class="cls-19" d="M3432.74,4719.38h22.11c.31,0,2.38,3.44,4.06,6.32l.09.16-.09.16c-2.44,4.22-3.81,6.36-4.06,6.36h-22.11c-.39,0-.71-.41-.71-.9v-11.19c0-.5.32-.9.71-.9Z"/>
          <path class="cls-19" d="M3432.74,4734.85h22.11c.31,0,2.38,3.44,4.06,6.32l.09.16-.09.16c-2.44,4.22-3.81,6.36-4.06,6.36h-22.11c-.39,0-.71-.41-.71-.9v-11.19c0-.5.32-.9.71-.9Z"/>
        </g>
        <text class="cls-46" transform="translate(3355.87 4623.98)"><tspan class="cls-60"><tspan x="0" y="0">Investing in an unlisted</tspan></tspan><tspan class="cls-60"><tspan x="5.1" y="13.32">business means you</tspan></tspan><tspan class="cls-60"><tspan x="4.34" y="26.64">get in on the ground</tspan></tspan><tspan class="cls-60"><tspan x="-2.48" y="39.96">floor at the beginning of</tspan></tspan><tspan class="cls-60"><tspan x="-4.87" y="53.28">its journey. All companies</tspan></tspan><tspan class="cls-60"><tspan x="4.24" y="66.59">that we partner with</tspan></tspan><tspan class="cls-60"><tspan x="9.89" y="79.91">are highly vetted.</tspan></tspan><tspan class="cls-61"><tspan x="7.92" y="91.33">TRUSTED PL</tspan><tspan class="cls-63" x="45.57" y="91.33">A</tspan><tspan x="49.22" y="91.33" xml:space="preserve">TFORM  </tspan></tspan></text>
      </g>
    </g>
    <g>
      <g class="cls-66">
        <g>
          <path class="cls-35" d="M3350.19,4602.94c1.02,2.69,2.75,8.63,1.53,15.79-1.62,9.47-11.66,17.33-15.37,19.95-.36.26-.86.26-1.22,0-3.71-2.61-13.75-10.47-15.37-19.95-1.22-7.15.51-13.1,1.53-15.79.16-.41.58-.67,1.05-.64.76.06,1.71.11,2.7.11,1.44,0,2.69-.1,3.74-.3,2.47-.47,4.87-1.85,6.36-2.84.36-.24.83-.24,1.18,0,1.49.99,3.9,2.37,6.36,2.84,1.05.2,2.31.3,3.74.3,1,0,1.94-.05,2.71-.11.46-.03.89.23,1.05.64Z"/>
          <path class="cls-3" d="M3351.73,4618.73c-1.62,9.47-11.66,17.33-15.37,19.95-.36.26-.86.26-1.22,0-3.71-2.61-13.75-10.47-15.37-19.95-1.22-7.15.51-13.1,1.53-15.79.16-.41.58-.67,1.05-.64.76.06,1.71.11,2.7.11,1.44,0,2.69-.1,3.74-.3,2.47-.47,4.87-1.85,6.36-2.84.36-.24.83-.24,1.18,0,1.49.99,3.9,2.37,6.36,2.84,1.05.2,2.31.3,3.74.3,1,0,1.94-.05,2.71-.11.46-.03.89.23,1.05.64,1.02,2.69,2.75,8.63,1.53,15.79Z"/>
        </g>
      </g>
      <g>
        <path class="cls-36" d="M3341.5,4614.88h-11.51c-.53,0-.96.41-.96.91v10.33c0,.71.43,1.29.96,1.29h11.51c.53,0,.96-.58.96-1.29v-10.33c0-.5-.43-.91-.96-.91ZM3334.5,4623.93l.52-3.44c-.31-.23-.5-.61-.5-1.03,0-.71.55-1.28,1.23-1.28s1.23.57,1.23,1.28c0,.43-.2.8-.5,1.03l.52,3.44h-2.49Z"/>
        <path class="cls-36" d="M3335.75,4608.62c-2.89,0-5.24,2.84-5.24,6.33,0,.21,1.78.21,1.78,0,0-1.91,1.32-4.17,3.46-4.17s3.46,2.27,3.46,4.17c0,.21,1.78.21,1.78,0,0-3.49-2.35-6.33-5.24-6.33Z"/>
      </g>
    </g>
  </g>
  <g>
    <rect class="cls-40" x="4718.09" y="3259.93" width="282.96" height="282.96" rx="18.4" ry="18.4" transform="translate(9719.15 6802.82) rotate(180)"/>
    <g>
      <path class="cls-53" d="M4919.1,3448.25c0,32.73-26.65,32.63-59.52,32.63s-59.52.1-59.52-32.63,26.65-85.91,59.52-85.91,59.52,53.18,59.52,85.91Z"/>
      <path class="cls-19" d="M4869.02,3439.37c-1.07.83-2.31,1.44-3.6,1.92-.2-3.94-.3-7.86-.35-11.79.49.02.97.06,1.43.13,5.26.78,6.64,6.52,2.53,9.75ZM4860.24,3442.46c-1.28.14-2.49.04-3.65-.25-.15-4.09-.24-8.18-.4-12.28,1.6-.06,3.22-.22,4.79-.34.06,4.23.17,8.47.4,12.7-.39.06-.76.13-1.14.17ZM4851.15,3425.19c-1.2-.4-2.25-1.05-3.15-1.95-2.54-2.33.95-4.61,3.15-5.7.34,2.6.58,5.22.76,7.85-.25-.07-.51-.12-.76-.2ZM4860.99,3416.61c-.02,2.98-.03,5.96-.01,8.95-1.31.07-2.55.19-3.64.29-.47.04-.91.05-1.34.06-.2-3.2-.48-6.4-.92-9.59,1.95-.28,3.94-.15,5.92.3ZM4875.58,3432.7c-1.17-5.4-5.78-6.92-10.54-7.17-.01-2.53-.01-5.07,0-7.6,1.46.63,2.86,1.36,4.13,2.14,2.25,1.39,4.29-2.2,2.05-3.59-1.95-1.2-4.02-2.18-6.17-2.91.03-2.94.05-5.87.05-8.8,0-2.68-4.07-2.68-4.07,0s-.02,5.15-.04,7.72c-2.17-.37-4.36-.4-6.56-.1-.35-1.93-.77-3.84-1.29-5.75-.67-2.59-4.6-1.49-3.92,1.1.5,1.86.91,3.72,1.24,5.61-.17.06-.36.09-.53.17-5.51,2.14-8.87,7.59-4.84,12.68,1.88,2.37,4.33,3.32,7.02,3.65.15,3.51.24,7.02.35,10.53-1.8-1.15-3.44-2.62-4.93-4.17-1.84-1.9-4.71,1.03-2.88,2.94,2.5,2.6,5.12,4.58,7.96,5.84.13,3,.31,6,.61,8.99.27,2.64,4.34,2.66,4.07,0-.26-2.58-.43-5.17-.55-7.76,1.54.27,3.17.33,4.9.17.19,2.76.42,5.52.74,8.28.3,2.63,4.38,2.65,4.07,0-.34-3.01-.59-6.02-.79-9.04,5.75-1.74,11.33-6.32,9.9-12.92Z"/>
      <path class="cls-53" d="M4897.45,3327.32c0,16.33-21.25,43.11-37.88,43.11s-37.88-24.08-37.88-40.41,2.32,0,18.94,0c2.39,0,13.9-8.08,18.94-8.08,3.6,0,13.44,8.08,18.94,8.08,14.43,0,18.94-15.01,18.94-2.69Z"/>
      <path class="cls-37" d="M4894.03,3361.31c-5.27,1.88-10.55,2.19-15.81,1.64-.09-2.58-.94-5.12-2.75-7.14-3.87-4.3-9.89.47-12.74,3.59-5.08-1.6-13.35-6.01-18.74-3.49-3.82,1.79-5.8,4.4-6.44,7.21-6.63.46-13.18,2.38-17.77,6.74-2.53,2.4,1.3,6.2,3.83,3.81,3.81-3.62,8.82-5.17,14.17-5.47,1.96,6.86,10.28,12.54,18.03,7.58,1.48-.95,2.75-2.23,3.91-3.62,1.75.63,3.4,1.29,4.89,1.93,6.02,2.6,10.75-.86,12.68-5.76,6.1.67,12.25.28,18.17-1.83,3.26-1.16,1.86-6.37-1.44-5.2ZM4872.48,3361.3c.07.23.11.49.16.74-1.33-.28-2.66-.59-3.98-.93,1.66-1.41,3.19-1.89,3.83.19ZM4859.48,3363.53c-.57.77-1.19,1.49-1.76,2.26-2.15-.65-4.31-1.22-6.5-1.7-2.42-.52-5.05-.88-7.77-1.03,2.73-3.93,10.06-1.78,16.04.47ZM4842.87,3368.29c3.73.29,7.5,1.04,11.06,2.03-3.42,2.73-9.34,1.42-11.06-2.03ZM4869.62,3369.75c-1.61.57-4.5-1.02-6.53-2.02.37-.51.93-1.3,1.6-2.18.64.24,1.24.45,1.72.59,1.82.52,3.67.95,5.52,1.33-.52,1.06-1.27,1.92-2.31,2.29Z"/>
      <path class="cls-31" d="M4895.6,3323.53c-2.82,2-9.06,7.28-17.09,7.28-5.49,0-15.34-8.08-18.94-8.08-5.04,0-16.55,8.08-18.94,8.08-8.93,0-15.15-5.45-17.68-7.28,0,.01-.24,13.83,8.97,19.95,6.76,4.49,10.52-1.66,14.13-6.38,3.61-4.71,6.05-7.18,12.09,4.94,3.3,6.63,8.13-13.35,13.06-5.4,9.03,14.59,22.64,7.34,24.41-13.11Z"/>
    </g>
  </g>
  <g>
    <path class="cls-40" d="M6429.72,3263.03l-152.68,268.71c-3.08,5.42.84,12.16,7.07,12.16h305.35c6.24,0,10.16-6.73,7.07-12.16l-152.68-268.71c-3.12-5.49-11.03-5.49-14.15,0Z"/>
    <g>
      <g>
        <rect class="cls-53" x="6383.22" y="3376.66" width="107.14" height="135.83" rx="6.55" ry="6.55"/>
        <g>
          <g>
            <g>
              <g>
                <path class="cls-34" d="M6392.21,3426.3h16.62c.2,0,.37.16.37.37v10.34c0,.2-.16.37-.37.37h-16.62c-.2,0-.37-.16-.37-.37v-10.34c0-.2.16-.37.37-.37Z"/>
                <path class="cls-19" d="M6408.03,3427.46v8.75h-15.03v-8.75h15.03M6408.83,3425.14h-16.62c-.84,0-1.52.68-1.52,1.52v10.34c0,.84.68,1.52,1.52,1.52h16.62c.84,0,1.52-.68,1.52-1.52v-10.34c0-.84-.68-1.52-1.52-1.52h0Z"/>
              </g>
              <g>
                <path class="cls-35" d="M6392.21,3441.72h16.62c.56,0,1.02.46,1.02,1.02v10.34c0,.56-.46,1.02-1.02,1.02h-16.62c-.56,0-1.02-.46-1.02-1.02v-10.34c0-.56.46-1.02,1.02-1.02Z"/>
                <path class="cls-34" d="M6408.83,3442.22c.28,0,.51.23.51.51v10.34c0,.28-.23.51-.51.51h-16.62c-.28,0-.51-.23-.51-.51v-10.34c0-.28.23-.51.51-.51h16.62M6408.83,3441.21h-16.62c-.84,0-1.52.68-1.52,1.52v10.34c0,.84.68,1.52,1.52,1.52h16.62c.84,0,1.52-.68,1.52-1.52v-10.34c0-.84-.68-1.52-1.52-1.52h0Z"/>
              </g>
              <g>
                <path class="cls-35" d="M6392.21,3458.44h16.62c.2,0,.37.16.37.37v10.34c0,.2-.16.37-.37.37h-16.62c-.2,0-.37-.16-.37-.37v-10.34c0-.2.16-.37.37-.37Z"/>
                <path class="cls-19" d="M6408.03,3459.6v8.75h-15.03v-8.75h15.03M6408.83,3457.28h-16.62c-.84,0-1.52.68-1.52,1.52v10.34c0,.84.68,1.52,1.52,1.52h16.62c.84,0,1.52-.68,1.52-1.52v-10.34c0-.84-.68-1.52-1.52-1.52h0Z"/>
              </g>
              <g>
                <rect class="cls-35" x="6391.19" y="3473.86" width="18.66" height="12.38" rx="1.02" ry="1.02"/>
                <path class="cls-34" d="M6408.83,3474.37c.28,0,.51.23.51.51v10.34c0,.28-.23.51-.51.51h-16.62c-.28,0-.51-.23-.51-.51v-10.34c0-.28.23-.51.51-.51h16.62M6408.83,3473.35h-16.62c-.84,0-1.52.68-1.52,1.52v10.34c0,.84.68,1.52,1.52,1.52h16.62c.84,0,1.52-.68,1.52-1.52v-10.34c0-.84-.68-1.52-1.52-1.52h0Z"/>
              </g>
              <g>
                <path class="cls-31" d="M6392.21,3489.93h16.62c.56,0,1.02.46,1.02,1.02v10.34c0,.56-.46,1.02-1.02,1.02h-16.62c-.56,0-1.02-.46-1.02-1.02v-10.34c0-.56.46-1.02,1.02-1.02Z"/>
                <path class="cls-34" d="M6408.83,3490.44c.28,0,.51.23.51.51v10.34c0,.28-.23.51-.51.51h-16.62c-.28,0-.51-.23-.51-.51v-10.34c0-.28.23-.51.51-.51h16.62M6408.83,3489.42h-16.62c-.84,0-1.52.68-1.52,1.52v10.34c0,.84.68,1.52,1.52,1.52h16.62c.84,0,1.52-.68,1.52-1.52v-10.34c0-.84-.68-1.52-1.52-1.52h0Z"/>
              </g>
            </g>
            <g>
              <g>
                <path class="cls-34" d="M6416.39,3426.3h16.62c.2,0,.37.16.37.37v10.34c0,.2-.16.37-.37.37h-16.62c-.2,0-.37-.16-.37-.37v-10.34c0-.2.16-.37.37-.37Z"/>
                <path class="cls-19" d="M6432.22,3427.46v8.75h-15.03v-8.75h15.03M6433.01,3425.14h-16.62c-.84,0-1.52.68-1.52,1.52v10.34c0,.84.68,1.52,1.52,1.52h16.62c.84,0,1.52-.68,1.52-1.52v-10.34c0-.84-.68-1.52-1.52-1.52h0Z"/>
              </g>
              <g>
                <rect class="cls-31" x="6416.03" y="3442.37" width="17.35" height="11.07" rx=".37" ry=".37"/>
                <path class="cls-19" d="M6432.22,3443.53v8.75h-15.03v-8.75h15.03M6433.01,3441.21h-16.62c-.84,0-1.52.68-1.52,1.52v10.34c0,.84.68,1.52,1.52,1.52h16.62c.84,0,1.52-.68,1.52-1.52v-10.34c0-.84-.68-1.52-1.52-1.52h0Z"/>
              </g>
              <g>
                <path class="cls-31" d="M6416.39,3458.44h16.62c.2,0,.37.16.37.37v10.34c0,.2-.16.37-.37.37h-16.62c-.2,0-.37-.16-.37-.37v-10.34c0-.2.16-.37.37-.37Z"/>
                <path class="cls-19" d="M6432.22,3459.6v8.75h-15.03v-8.75h15.03M6433.01,3457.28h-16.62c-.84,0-1.52.68-1.52,1.52v10.34c0,.84.68,1.52,1.52,1.52h16.62c.84,0,1.52-.68,1.52-1.52v-10.34c0-.84-.68-1.52-1.52-1.52h0Z"/>
              </g>
              <g>
                <rect class="cls-35" x="6415.37" y="3473.86" width="18.66" height="12.38" rx="1.02" ry="1.02"/>
                <path class="cls-34" d="M6433.01,3474.37c.28,0,.51.23.51.51v10.34c0,.28-.23.51-.51.51h-16.62c-.28,0-.51-.23-.51-.51v-10.34c0-.28.23-.51.51-.51h16.62M6433.01,3473.35h-16.62c-.84,0-1.52.68-1.52,1.52v10.34c0,.84.68,1.52,1.52,1.52h16.62c.84,0,1.52-.68,1.52-1.52v-10.34c0-.84-.68-1.52-1.52-1.52h0Z"/>
              </g>
              <g>
                <path class="cls-31" d="M6416.39,3489.93h16.62c.56,0,1.02.46,1.02,1.02v10.34c0,.56-.46,1.02-1.02,1.02h-16.62c-.56,0-1.02-.46-1.02-1.02v-10.34c0-.56.46-1.02,1.02-1.02Z"/>
                <path class="cls-34" d="M6433.01,3490.44c.28,0,.51.23.51.51v10.34c0,.28-.23.51-.51.51h-16.62c-.28,0-.51-.23-.51-.51v-10.34c0-.28.23-.51.51-.51h16.62M6433.01,3489.42h-16.62c-.84,0-1.52.68-1.52,1.52v10.34c0,.84.68,1.52,1.52,1.52h16.62c.84,0,1.52-.68,1.52-1.52v-10.34c0-.84-.68-1.52-1.52-1.52h0Z"/>
              </g>
            </g>
            <g>
              <g>
                <path class="cls-34" d="M6440.57,3426.3h16.62c.2,0,.37.16.37.37v10.34c0,.2-.16.37-.37.37h-16.62c-.2,0-.37-.16-.37-.37v-10.34c0-.2.16-.37.37-.37Z"/>
                <path class="cls-19" d="M6456.4,3427.46v8.75h-15.03v-8.75h15.03M6457.19,3425.14h-16.62c-.84,0-1.52.68-1.52,1.52v10.34c0,.84.68,1.52,1.52,1.52h16.62c.84,0,1.52-.68,1.52-1.52v-10.34c0-.84-.68-1.52-1.52-1.52h0Z"/>
              </g>
              <g>
                <path class="cls-31" d="M6440.57,3442.37h16.62c.2,0,.37.16.37.37v10.34c0,.2-.16.37-.37.37h-16.62c-.2,0-.37-.16-.37-.37v-10.34c0-.2.16-.37.37-.37Z"/>
                <path class="cls-19" d="M6456.4,3443.53v8.75h-15.03v-8.75h15.03M6457.19,3441.21h-16.62c-.84,0-1.52.68-1.52,1.52v10.34c0,.84.68,1.52,1.52,1.52h16.62c.84,0,1.52-.68,1.52-1.52v-10.34c0-.84-.68-1.52-1.52-1.52h0Z"/>
              </g>
              <g>
                <path class="cls-31" d="M6440.57,3458.44h16.62c.2,0,.37.16.37.37v10.34c0,.2-.16.37-.37.37h-16.62c-.2,0-.37-.16-.37-.37v-10.34c0-.2.16-.37.37-.37Z"/>
                <path class="cls-19" d="M6456.4,3459.6v8.75h-15.03v-8.75h15.03M6457.19,3457.28h-16.62c-.84,0-1.52.68-1.52,1.52v10.34c0,.84.68,1.52,1.52,1.52h16.62c.84,0,1.52-.68,1.52-1.52v-10.34c0-.84-.68-1.52-1.52-1.52h0Z"/>
              </g>
              <g>
                <rect class="cls-35" x="6439.56" y="3473.86" width="18.66" height="12.38" rx="1.02" ry="1.02"/>
                <path class="cls-34" d="M6457.19,3474.37c.28,0,.51.23.51.51v10.34c0,.28-.23.51-.51.51h-16.62c-.28,0-.51-.23-.51-.51v-10.34c0-.28.23-.51.51-.51h16.62M6457.19,3473.35h-16.62c-.84,0-1.52.68-1.52,1.52v10.34c0,.84.68,1.52,1.52,1.52h16.62c.84,0,1.52-.68,1.52-1.52v-10.34c0-.84-.68-1.52-1.52-1.52h0Z"/>
              </g>
              <g>
                <rect class="cls-35" x="6440.21" y="3490.58" width="17.35" height="11.07" rx=".37" ry=".37"/>
                <path class="cls-19" d="M6456.4,3491.74v8.75h-15.03v-8.75h15.03M6457.19,3489.42h-16.62c-.84,0-1.52.68-1.52,1.52v10.34c0,.84.68,1.52,1.52,1.52h16.62c.84,0,1.52-.68,1.52-1.52v-10.34c0-.84-.68-1.52-1.52-1.52h0Z"/>
              </g>
            </g>
            <g>
              <g>
                <rect class="cls-35" x="6463.74" y="3425.48" width="18.66" height="12.38" rx="1.02" ry="1.02"/>
                <path class="cls-34" d="M6481.38,3425.98c.28,0,.51.23.51.51v10.34c0,.28-.23.51-.51.51h-16.62c-.28,0-.51-.23-.51-.51v-10.34c0-.28.23-.51.51-.51h16.62M6481.38,3424.97h-16.62c-.84,0-1.52.68-1.52,1.52v10.34c0,.84.68,1.52,1.52,1.52h16.62c.84,0,1.52-.68,1.52-1.52v-10.34c0-.84-.68-1.52-1.52-1.52h0Z"/>
              </g>
              <g>
                <rect class="cls-35" x="6464.39" y="3442.2" width="17.35" height="11.07" rx=".37" ry=".37"/>
                <path class="cls-19" d="M6480.58,3443.36v8.75h-15.03v-8.75h15.03M6481.38,3441.04h-16.62c-.84,0-1.52.68-1.52,1.52v10.34c0,.84.68,1.52,1.52,1.52h16.62c.84,0,1.52-.68,1.52-1.52v-10.34c0-.84-.68-1.52-1.52-1.52h0Z"/>
              </g>
              <g>
                <path class="cls-35" d="M6464.76,3458.27h16.62c.2,0,.37.16.37.37v10.34c0,.2-.16.37-.37.37h-16.62c-.2,0-.37-.16-.37-.37v-10.34c0-.2.16-.37.37-.37Z"/>
                <path class="cls-19" d="M6480.58,3459.43v8.75h-15.03v-8.75h15.03M6481.38,3457.11h-16.62c-.84,0-1.52.68-1.52,1.52v10.34c0,.84.68,1.52,1.52,1.52h16.62c.84,0,1.52-.68,1.52-1.52v-10.34c0-.84-.68-1.52-1.52-1.52h0Z"/>
              </g>
              <rect class="cls-51" x="6463.23" y="3473.19" width="19.67" height="29.8" rx="2.27" ry="2.27"/>
            </g>
          </g>
          <rect class="cls-55" x="6390.68" y="3386.16" width="92.22" height="31.56" rx="2.23" ry="2.23"/>
        </g>
      </g>
      <g>
        <path class="cls-53" d="M6440.55,3391.72c-6.02-1.55-12.06,1.67-13.48,7.2-.49,1.89-.37,3.81.24,5.58l-2.9,3.7,6.08.97c1.35,1.18,3.02,2.08,4.91,2.57,6.02,1.55,12.06-1.67,13.48-7.2,1.42-5.53-2.3-11.27-8.33-12.82Z"/>
        <path class="cls-35" d="M6436.64,3403.54c.04-.48.29-.87.49-1.21.21-.34.43-.64.68-.89.24-.26.5-.49.77-.71.27-.21.52-.43.76-.66.24-.23.45-.48.64-.76.19-.28.34-.61.44-1,.14-.55.11-1.06-.1-1.51-.21-.45-.61-.75-1.2-.91-.37-.09-.68-.14-.94-.15-.26,0-.48.02-.67.07-.19.05-.34.12-.47.22-.13.1-.25.19-.35.29.26.08.45.25.57.5.12.26.14.55.06.87-.09.36-.27.65-.53.87-.26.22-.6.27-1.03.16-.35-.09-.59-.3-.73-.62-.14-.33-.16-.69-.05-1.1.09-.34.24-.68.46-1.02.22-.34.52-.63.91-.87.39-.24.86-.4,1.43-.48.56-.08,1.23-.02,2.01.18.54.14,1.03.31,1.48.53.45.21.82.48,1.12.81.3.33.49.71.6,1.16.1.44.08.96-.07,1.55-.14.54-.34.98-.61,1.32-.27.34-.57.62-.91.84-.34.23-.69.43-1.06.59-.37.17-.73.36-1.08.57-.35.21-.68.47-.97.78-.17.18-.32.38-.44.62-.19.34-.56.51-.9.42,0,0-.33-.11-.3-.46ZM6437.62,3407.51c-.1.4-.31.7-.63.92-.32.21-.66.27-1.01.18-.35-.09-.61-.3-.79-.65-.18-.34-.22-.71-.12-1.11s.31-.69.64-.9c.33-.22.66-.28,1.01-.19.36.09.62.31.8.66.18.35.21.71.11,1.1Z"/>
      </g>
    </g>
  </g>
  <rect class="cls-52" x="2652.01" y="3150.4" width="1491.04" height="502.01" rx="32.64" ry="32.64" transform="translate(6795.05 6802.82) rotate(180)"/>
  <g>
    <g>
      <path class="cls-33" d="M3361.19,3447.61c-2.41,2.46-4.09,4.64-6.17,6.44-9.58,8.24-20.83,12.07-33.31,12.22-13.55.15-25.92-3.56-36.48-12.39-8.32-6.96-13.87-15.8-17.33-25.99-4.37-12.89-4.86-26.1-2.91-39.48,1.4-9.65,4.65-18.63,10.1-26.73,9.45-14.04,22.64-21.94,39.46-23.63,8.51-.86,16.89-.12,25.07,2.62,8.52,2.86,15.65,7.66,21.29,14.67.41.5.68,1.15,1.4,1.42.7-.83.35-1.82.36-2.72.04-3.52.06-7.05,0-10.57-.03-1.37.5-1.81,1.83-1.81,7.8.04,15.61.04,23.41,0,1.25,0,1.73.5,1.65,1.7-.04.66,0,1.33,0,2,0,52.07,0,104.15,0,156.22,0,.29,0,.57,0,.86-.02,2.8-.02,2.81-2.81,2.81-7.61,0-15.23,0-22.84,0-2.82,0-2.84-.01-2.83-2.76.03-17.33.08-34.65.12-51.98,0-.74,0-1.49,0-2.91ZM3293.03,3401.78c-.02,7.42,1.17,14.63,4.24,21.4,5.14,11.32,13.64,18.34,26.25,19.69,15.16,1.62,29.18-6.73,34.97-20.78,5.5-13.33,5.32-26.79.04-40.05-5.07-12.72-14.67-19.95-28.4-20.98-13.92-1.04-24.64,4.5-31.51,16.81-4.13,7.4-5.56,15.52-5.6,23.92Z"/>
      <path class="cls-33" d="M3884.37,3409.76c.41,4.1,1.3,8.17,2.88,12.04,3.9,9.54,10.38,16.69,20.31,19.91,10.69,3.47,21.21,2.99,31.01-3.17,3.1-1.95,5.62-4.57,7.54-7.67,1.02-1.65,2.21-2.24,4.16-2.21,7.71.12,15.42.04,23.13.05.84,0,1.7-.14,2.54.24.16,1.25-.44,2.26-.88,3.28-7.68,17.91-21.18,28.82-40.06,33.19-12.61,2.92-25.19,2.49-37.51-1.37-13.96-4.37-24.94-12.8-32.4-25.53-7.89-13.47-10.16-28.12-8.92-43.47.81-10.02,3.68-19.39,8.71-28.12,5.92-10.28,14.23-18.05,24.89-23.15,14.56-6.96,29.84-8.17,45.4-4.34,15.7,3.87,27.44,13.15,35.1,27.43,6.28,11.71,8.53,24.33,8.09,37.51-.06,1.67.67,3.81-.58,4.91-1.09.96-3.11.3-4.72.3-28.56-.06-57.12-.14-85.68-.2-.93,0-1.9-.23-3.02.37ZM3917.47,3389.26v-.03c9.98,0,19.97,0,29.95,0,2.51,0,2.59-.11,2.11-2.6-.73-3.85-1.84-7.58-3.74-11.02-3.31-6-7.92-10.57-14.28-13.38-5.67-2.5-11.57-3-17.59-2.45-16.18,1.5-25.59,12.2-28.2,26.84-.46,2.6-.37,2.64,2.37,2.64,9.79,0,19.59,0,29.38,0Z"/>
      <path class="cls-33" d="M3155.79,3409.65c.21,4.55,1.42,8.84,3.17,12.94,3.93,9.18,10.36,16.01,19.97,19.13,10.8,3.51,21.39,2.98,31.25-3.29,3.09-1.97,5.54-4.65,7.47-7.75.91-1.45,1.96-2.01,3.68-1.99,7.9.09,15.8.04,23.7.05.75,0,1.52-.14,2.36.3-.63,3.18-2.12,6.05-3.68,8.84-8.28,14.82-20.93,23.78-37.38,27.53-12.52,2.85-24.99,2.47-37.23-1.29-12.67-3.88-23-11.21-30.51-22.25-8.8-12.94-11.85-27.45-11.31-42.85.35-9.91,2.49-19.41,6.95-28.34,6.12-12.26,15.2-21.57,27.72-27.23,17.15-7.75,34.67-8.17,52.18-1.49,11.79,4.5,20.67,12.69,26.83,23.69,7.34,13.12,9.5,27.36,8.81,42.19-.07,1.43-.69,1.74-1.94,1.72-4-.05-8-.03-11.99-.04-25.7-.05-51.4-.1-77.1-.15-.93,0-1.89-.15-2.93.27ZM3221.17,3388.9c-.97-9-4.5-16.75-11.6-22.61-7.63-6.31-16.6-7.53-26.09-6.32-4.38.56-8.52,1.95-12.28,4.31-8.69,5.46-12.69,13.8-14.37,23.55-.17.98.16,1.45,1.16,1.43.57-.01,1.14,0,1.71,0,19.49,0,38.98,0,58.47,0,.93,0,1.9.21,3-.35Z"/>
      <path class="cls-33" d="M3496.23,3447.45c-.97.12-1.11,1.01-1.49,1.57-6.4,9.4-15.29,14.91-26.41,16.86-9.35,1.64-18.65,1.24-27.61-1.89-10.47-3.66-17.61-11.01-21.79-21.23-2.8-6.85-4.19-14.02-4.58-21.39-.15-2.85-.22-5.71-.22-8.56-.02-22.66-.01-45.32,0-67.98,0-3.36-.32-3.13,3.01-3.13,7.42,0,14.85,0,22.27,0,3.59,0,3.16-.11,3.16,3.3,0,20.18-.02,40.37.02,60.55.01,6.67.21,13.33,2.05,19.82,1.51,5.33,3.89,10.09,8.39,13.58,1.53,1.19,3.19,2.14,4.99,2.7,8.99,2.82,17.69,2.54,25.6-3.13,5.3-3.8,7.82-9.48,9.37-15.58,1.5-5.93,1.92-12.01,1.92-18.13-.01-19.71-.02-39.42,0-59.12,0-4.42-.63-3.98,3.9-3.99,7.14-.02,14.28,0,21.42,0,3.47,0,3.14-.11,3.14,3.03,0,6.38,0,12.76,0,19.14.02,31.23.04,62.46.07,93.68,0,1.43,0,2.86.09,4.28.07,1.2-.36,1.8-1.61,1.71-.38-.03-.76,0-1.14,0-7.14,0-14.28,0-21.42,0-2.84,0-2.85-.01-2.86-2.75-.01-3.71.01-7.43-.02-11.14,0-.72.25-1.5-.26-2.19Z"/>
      <path class="cls-33" d="M3752.8,3424.89c3.71,0,7.43.1,11.14-.04,1.65-.06,2.35.54,2.85,2.03,1.33,4.03,3.5,7.59,6.6,10.53,4,3.8,8.78,5.95,14.24,6.62,6.95.86,13.73.44,19.89-3.28,4.03-2.43,6.67-5.83,6.9-10.81.18-3.82-1.46-6.59-4.51-8.66-3.2-2.18-6.85-3.31-10.5-4.37-7.49-2.17-15.03-4.17-22.53-6.32-5.86-1.68-11.56-3.79-16.92-6.75-12.95-7.14-18.02-18.98-16.14-33.38,1.58-12.09,8.54-20.53,18.98-26.23,11.27-6.15,23.45-7.39,36.02-6.04,8.26.89,16.01,3.35,22.96,7.97,9.46,6.29,15.09,15.1,16.86,26.34.1.66.13,1.33.21,1.99.1.86-.32,1.23-1.13,1.25-.38,0-.76.01-1.14.01-6.86,0-13.71-.04-20.57.03-1.52.02-2.33-.36-2.97-1.89-3.29-7.91-9.36-12.19-17.8-13.28-5.76-.75-11.41-.6-16.78,1.89-4.52,2.1-7.13,5.61-7.42,10.65-.23,4.08,1.45,7.2,4.97,9.28,4.4,2.59,9.29,3.87,14.15,5.18,8.17,2.2,16.45,4.01,24.42,6.92,5.19,1.9,10.23,4.12,14.76,7.37,6,4.31,9.84,10.02,11.07,17.33,2.18,12.88-.52,24.45-9.81,33.99-6.14,6.3-13.77,10.09-22.28,12.08-12.69,2.97-25.35,2.64-37.8-1.16-11.85-3.62-20.67-11-26.11-22.28-2.17-4.5-3.53-9.23-4.68-14.05-.69-2.86-.61-2.92,2.21-2.93,3.62-.01,7.24,0,10.85,0Z"/>
      <path class="cls-33" d="M3618.45,3401.22c0-11.62,0-23.23,0-34.85,0-.57-.05-1.15,0-1.71.15-1.49-.46-2-1.96-1.96-3.81.09-7.62.03-11.42.03-.86,0-1.71,0-2.57,0-2.46-.03-2.48-.03-2.49-2.52-.01-5.52.04-11.05-.03-16.57-.02-1.52.51-1.98,1.97-1.96,4.76.06,9.52.04,14.28.01,2.17-.01,2.21-.05,2.22-2.24.02-9.05,0-18.09,0-27.14,0-.67.03-1.33,0-2-.06-1.05.31-1.65,1.45-1.57.28.02.57,0,.86,0,8,0,15.99-.01,23.99,0,2.15,0,2.19.05,2.2,2.24.02,9.33,0,18.66.01,28,0,2.68.02,2.7,2.65,2.71,6,.01,12,0,17.99.01,2.18,0,2.21.05,2.22,2.2.02,5.52.02,11.05,0,16.57,0,2.19-.04,2.23-2.18,2.24-6,.02-11.99,0-17.99.01-2.66,0-2.69.03-2.69,2.66,0,21.23,0,42.47,0,63.7,0,2.49.3,4.94,1.03,7.33,1.19,3.87,3.76,6.28,7.67,7.29,3.28.85,6.59.79,9.93.52,1.87-.16,1.94-.11,1.95,1.79.03,5.71-.01,11.43.03,17.14,0,1.25-.36,2-1.69,2.12-9.83.94-19.6.94-29.1-2.19-10.97-3.61-16.58-11.52-17.95-22.74-.29-2.37-.37-4.74-.37-7.13.01-10.67,0-21.33,0-32Z"/>
      <path class="cls-33" d="M3689.95,3402.5c0-19.23,0-38.47,0-57.7,0-3.19-.31-3.12,3.08-3.11,7.42.01,14.85,0,22.27,0,3.6,0,3.14-.1,3.15,3.31,0,31.8,0,63.6,0,95.4,0,6.86,0,13.71,0,20.57,0,2.52-.03,2.55-2.5,2.56-7.81.02-15.61.01-23.42,0-2.56,0-2.58-.03-2.58-2.76,0-16.76,0-33.52,0-50.27v-8Z"/>
      <path class="cls-33" d="M3582.25,3402.81c0,18.94,0,37.89,0,56.83,0,.67-.06,1.34,0,2,.15,1.55-.62,1.92-2.03,1.91-8.18-.04-16.37-.05-24.55,0-1.56.01-2.03-.63-1.89-2.04.05-.57,0-1.14,0-1.71v-114.52c0-.48,0-.95,0-1.43.05-2.11.05-2.15,2.29-2.15,7.99-.02,15.99-.02,23.98,0,2.13,0,2.17.06,2.18,2.28.02,9.33,0,18.66,0,27.99,0,10.28,0,20.56,0,30.84Z"/>
      <path class="cls-33" d="M3567.92,3324.08c-4.18,0-8.37.02-12.55,0-2.03-.02-2.08-.06-2.09-2.08-.02-7.42-.02-14.84,0-22.25,0-2.08.05-2.15,2.01-2.16,8.46-.03,16.92,0,25.39-.03,1.36,0,1.82.48,1.81,1.83-.04,7.61-.05,15.22,0,22.82.01,1.55-.6,1.93-2.03,1.9-4.18-.07-8.37-.02-12.55-.02Z"/>
      <path class="cls-33" d="M3704.19,3297.57c4.18,0,8.37.04,12.55-.02,1.44-.02,2.01.42,2,1.95-.06,7.51-.01,15.02-.04,22.54,0,1.98-.06,2.03-2.11,2.04-8.37.02-16.73-.02-25.1.03-1.44,0-2.03-.41-2.02-1.94.06-7.61.05-15.21,0-22.82,0-1.4.58-1.8,1.88-1.79,4.28.04,8.56.02,12.83.02Z"/>
      <path class="cls-33" d="M4016.08,3357.62c-10.95-.03-19.6-8.66-19.61-19.56,0-10.99,8.81-19.69,19.89-19.6,10.83.08,19.5,8.89,19.46,19.76-.05,10.91-8.71,19.43-19.73,19.4ZM4031.86,3338.04c0-8.67-7.17-15.89-15.74-15.86-8.66.04-15.65,7.16-15.63,15.93.03,8.81,7.03,15.87,15.7,15.83,8.66-.04,15.68-7.16,15.67-15.9Z"/>
      <path class="cls-33" d="M4025.94,3349.51c-1.85,0-3.33-.01-4.81,0-1.05.01-1.46-.75-1.9-1.49-1.11-1.88-2.2-3.78-3.31-5.66-.4-.67-.86-1.35-1.79-1-.83.31-.55,1.12-.57,1.74-.04,1.71-.03,3.43-.01,5.14,0,.8-.31,1.26-1.16,1.26-.29,0-.57.01-.86.01-3.73,0-3.1.02-3.12-3.01-.02-5.81-.02-11.61,0-17.42,0-2.05.06-2.1,2.04-2.11,2.76-.02,5.52-.05,8.28.11,3.33.19,5.46,1.81,6.29,4.49.95,3.05.01,6.2-2.75,8.03-1.33.88-1.34,1.49-.55,2.69,1.44,2.19,2.89,4.4,4.19,7.21ZM4013.56,3333.87c0,.57-.02,1.14,0,1.71.02.49.18,1,.74,1.05,1.6.12,3.22.32,4.72-.53.97-.55,1.21-1.44,1.11-2.43-.11-1.04-.7-1.77-1.75-1.98-.74-.15-1.5-.21-2.26-.23-2.55-.06-2.56-.03-2.57,2.42Z"/>
    </g>
    <g>
      <path class="cls-19" d="M2885.32,3556.13c-2.34-1.38-5.02-1.93-7.46-3.09-6.99-3.34-13.53-7.47-20.24-11.28-11.83-6.71-23.66-13.41-35.39-20.27-11.34-6.62-23.07-12.6-33.99-19.89-13.37-8.92-22.06-21.42-26.58-36.85-1.74-5.96-2.42-12.02-2.41-18.22.04-30.13.04-60.25.01-90.38-.01-20.21,7.82-36.89,22.64-50.41,3.8-3.46,8.14-6.2,12.6-8.75,16.34-9.34,32.64-18.74,48.97-28.08,10.51-6.01,21.02-12.03,31.62-17.89,6.25-3.46,13.03-5.47,20.09-6.55.45-.07.87-.28,1.3-.43,3.54-.07,7.08-.17,10.62-.2,11.68-.11,22.42,3.27,32.48,8.96,10.62,6,21.16,12.14,31.73,18.22,16.31,9.37,32.71,18.58,48.9,28.16,12.07,7.13,20.68,17.46,26.32,30.31,3.96,9.03,5.53,18.48,5.51,28.3-.07,29.37,0,58.74-.04,88.11-.03,19.23-6.98,35.6-20.67,49.08-4.62,4.54-10.04,8-15.63,11.21-10.91,6.25-21.82,12.5-32.73,18.74-14.71,8.42-29.37,16.94-44.14,25.25-14.61,8.22-30.19,10.7-46.69,7.41-2.28-.45-4.46-1.38-6.82-1.44ZM3024.69,3401.24c0-13.43-.04-26.86.02-40.29.02-5.09-.77-10.03-2.34-14.84-3.97-12.17-11.71-21.25-22.76-27.58-8.81-5.05-17.65-10.02-26.46-15.07-14.14-8.11-28.24-16.28-42.38-24.38-6.54-3.74-13.48-6.19-21.1-6.76-8.96-.67-17.52.62-25.47,4.78-7.51,3.93-14.81,8.24-22.17,12.45-16.81,9.63-33.61,19.26-50.39,28.95-16.58,9.58-25.07,24.1-25.24,43.15-.24,26.39-.06,52.79-.06,79.18,0,3.37.3,6.7.98,10,2.92,14.32,10.72,25.19,23.23,32.68,3.84,2.3,7.72,4.5,11.6,6.73,19.31,11.08,38.6,22.2,57.95,33.2,16.57,9.42,33.34,9.62,50.08.49,7.69-4.19,15.21-8.67,22.8-13.03,14.86-8.54,29.71-17.1,44.59-25.6,5.69-3.25,11.08-6.87,15.35-11.94,7.81-9.27,11.79-19.94,11.76-32.1-.03-13.34,0-26.67,0-40.01Z"/>
      <path class="cls-19" d="M2940.89,3414.79c-15.29,0-30.58-.03-45.88.02-4.25.01-7.92-1.27-10.7-4.5-3.42-3.97-4.54-8.56-2.64-13.54,1.99-5.24,5.88-8.26,11.51-8.89,1.01-.11,2.05-.06,3.07-.06,20.89,0,41.77,0,62.66,0,3.48,0,3.6-.13,2.54-3.42-4.12-12.78-11.8-22.92-22.78-30.6-7.86-5.5-16.56-8.94-26.06-10.09-12.69-1.53-24.7.85-35.78,7.31-13.54,7.89-22.91,19.28-27.31,34.36-5.2,17.8-1.87,34.34,8.59,49.46,6.58,9.51,15.33,16.44,26.2,20.57,11.86,4.5,23.92,5.31,36.2,1.97,10.01-2.72,18.77-7.66,26.17-14.93,1-.98,2-1.53,3.43-1.53,9.6.03,19.21.02,28.81.02.37,0,.75.01,1.12.03.72.04,1.01.46.76,1.11-.19.52-.52.99-.8,1.47-8.34,14.28-19.82,25.23-34.47,32.94-15.11,7.96-31.19,11.17-48.1,9.68-16.84-1.49-31.97-7.67-45.25-18.19-10.16-8.06-18.09-17.96-23.79-29.6-5.93-12.1-8.85-24.93-8.41-38.4.67-20.35,7.49-38.42,20.65-54.03,11.9-14.1,27.06-22.93,44.83-27.24,10.48-2.54,21.12-3.08,31.91-1.61,20.65,2.81,37.79,12.16,51.74,27.41,11.27,12.33,18.4,26.83,21.18,43.35,1.38,8.22,1.55,16.51.26,24.78-.33,2.09-.32,2.14-2.39,2.15-5.22.03-10.44,0-15.66.01-10.54,0-21.07,0-31.61,0Z"/>
    </g>
  </g>
</svg>